<svg width="46" height="24" viewBox="0 0 46 24" fill="none" xmlns="http://www.w3.org/2000/svg">
<rect width="46" height="24" rx="4" fill="white"/>
<path d="M24.0465 22.0422H3.95361V1.94922H24.0465V22.0422Z" fill="white"/>
<path d="M46 12.9889V0H0V24H46V16.9978C45.8975 16.9978 46 12.9889 46 12.9889Z" fill="#006FCF"/>
<path d="M34.3252 11.5514H36.5969V6H34.1247V6.77297L33.657 6H31.5189V6.98378L31.118 6H27.1759C27.0423 6 26.9087 6.07027 26.7751 6.07027C26.6414 6.07027 26.5746 6.14054 26.441 6.21081C26.3074 6.28108 26.2405 6.28108 26.1069 6.35135V6H14.8151L14.4811 6.91351L14.147 6H11.4744V6.98378L11.0735 6H8.93541L8 8.38919V11.5514H9.53675L9.80401 10.7784H10.3385L10.6058 11.5514H22.3653V10.8486L22.833 11.5514H26.1069V11.1297C26.1737 11.2 26.3074 11.2 26.3742 11.2703C26.441 11.3405 26.5746 11.3405 26.6414 11.4108C26.7751 11.4811 26.9087 11.4811 27.0423 11.4811H29.4477L29.7149 10.7081H30.2494L30.5167 11.4811H33.7906V10.7784L34.3252 11.5514ZM38 18.5784V13.3784H19.6258L19.1581 14.0811L18.6904 13.3784H13.3452V18.9297H18.6904L19.1581 18.227L19.6258 18.9297H22.9666V17.7351H22.833C23.3007 17.7351 23.7016 17.6649 24.0356 17.5243V19H26.441V18.2973L26.9087 19H36.8641C37.265 18.8595 37.6659 18.7892 38 18.5784Z" fill="white"/>
<path d="M36.8641 17.2342H35.0601V18H36.7973C37.5323 18 38 17.5127 38 16.8165C38 16.1203 37.5991 15.7722 36.931 15.7722H36.1292C35.9287 15.7722 35.7951 15.6329 35.7951 15.4241C35.7951 15.2152 35.9287 15.0759 36.1292 15.0759H37.6659L38 14.3101H36.196C35.461 14.3101 34.9933 14.7975 34.9933 15.4241C34.9933 16.1203 35.3942 16.4684 36.0624 16.4684H36.8641C37.0646 16.4684 37.1982 16.6076 37.1982 16.8165C37.265 17.0949 37.1314 17.2342 36.8641 17.2342ZM33.5902 17.2342H31.7862V18H33.5234C34.2584 18 34.7261 17.5127 34.7261 16.8165C34.7261 16.1203 34.3252 15.7722 33.657 15.7722H32.8552C32.6548 15.7722 32.5212 15.6329 32.5212 15.4241C32.5212 15.2152 32.6548 15.0759 32.8552 15.0759H34.392L34.7261 14.3101H32.922C32.1871 14.3101 31.7194 14.7975 31.7194 15.4241C31.7194 16.1203 32.1203 16.4684 32.7884 16.4684H33.5902C33.7906 16.4684 33.9243 16.6076 33.9243 16.8165C33.9911 17.0949 33.7906 17.2342 33.5902 17.2342ZM31.2517 15.0063V14.2405H28.4454V17.9304H31.2517V17.1646H29.2472V16.3987H31.1849V15.6329H29.2472V14.9367H31.2517V15.0063ZM26.7082 15.0063C27.0423 15.0063 27.1759 15.2152 27.1759 15.4241C27.1759 15.6329 27.0423 15.8418 26.7082 15.8418H25.706V14.9367L26.7082 15.0063ZM25.706 16.6076H26.1069L27.1759 17.9304H28.1782L26.9755 16.538C27.5768 16.3987 27.9109 15.981 27.9109 15.4241C27.9109 14.7278 27.4432 14.2405 26.7082 14.2405H24.8374V17.9304H25.6392L25.706 16.6076ZM23.5679 15.4937C23.5679 15.7722 23.4343 15.981 23.1002 15.981H22.0312V15.0063H23.0334C23.3675 15.0063 23.5679 15.2152 23.5679 15.4937ZM21.2294 14.2405V17.9304H22.0312V16.6772H23.1002C23.8352 16.6772 24.3697 16.1899 24.3697 15.4241C24.3697 14.7278 23.902 14.1709 23.167 14.1709L21.2294 14.2405ZM20.0267 17.9304H21.029L19.6258 16.0506L21.029 14.2405H20.0267L19.1581 15.4241L18.2895 14.2405H17.2873L18.6904 16.0506L17.2873 17.8608H18.2895L19.1581 16.6772L20.0267 17.9304ZM17.02 15.0063V14.2405H14.2138V17.9304H17.02V17.1646H15.0156V16.3987H16.9532V15.6329H15.0156V14.9367H17.02V15.0063ZM33.2561 8.46203L34.6592 10.6899H35.6615V7H34.8597V9.43671L34.6592 9.08861L33.3898 7H32.3207V10.6899H33.1225V8.18354L33.2561 8.46203ZM29.7817 8.3924L30.049 7.62658L30.3163 8.3924L30.6503 9.22785H29.4477L29.7817 8.3924ZM31.1849 10.6899H32.0535L30.5167 7H29.4477L27.9109 10.6899H28.7795L29.1136 9.92405H30.8508L31.1849 10.6899ZM27.4432 10.6899L27.7773 9.92405H27.5768C26.9755 9.92405 26.6414 9.50633 26.6414 8.87975V8.81012C26.6414 8.18354 26.9755 7.76582 27.5768 7.76582H28.4454V7H27.51C26.441 7 25.8396 7.76582 25.8396 8.81012V8.87975C25.8396 9.99367 26.441 10.6899 27.4432 10.6899ZM24.4365 10.6899H25.2383V7.06962H24.4365V10.6899ZM22.6993 7.76582C23.0334 7.76582 23.167 7.97468 23.167 8.18354C23.167 8.3924 23.0334 8.60127 22.6993 8.60127H21.6971V7.6962L22.6993 7.76582ZM21.6971 9.36709H22.098L23.167 10.6899H24.1693L22.9666 9.29747C23.5679 9.15823 23.902 8.74051 23.902 8.18354C23.902 7.48734 23.4343 7 22.6993 7H20.8285V10.6899H21.6303L21.6971 9.36709ZM20.2272 7.76582V7H17.4209V10.6899H20.2272V9.92405H18.2227V9.15823H20.1604V8.3924H18.2227V7.6962H20.2272V7.76582ZM14.147 10.6899H14.882L15.8842 7.6962V10.6899H16.686V7H15.3497L14.5479 9.50633L13.7461 7H12.4098V10.6899H13.2116V7.6962L14.147 10.6899ZM9.80401 8.3924L10.0713 7.62658L10.3385 8.3924L10.6726 9.22785H9.46993L9.80401 8.3924ZM11.2071 10.6899H12.0757L10.539 7H9.53675L8 10.6899H8.8686L9.20267 9.92405H10.9399L11.2071 10.6899Z" fill="#006FCF"/>
</svg>
