<svg width="871" height="378" viewBox="0 0 871 378" fill="none" xmlns="http://www.w3.org/2000/svg">
<g clip-path="url(#clip0_2973_1531)">
<path d="M707.811 -11.8946C703.868 -9.92213 703.572 -9.37971 703.572 -3.85688V1.07422L705.445 -0.84891C706.431 -1.93375 707.959 -3.36377 708.846 -4.05412C709.684 -4.69517 710.423 -5.58276 710.472 -5.97725C710.719 -7.75245 710.423 -12.8808 710.127 -12.8808C709.881 -12.8315 708.846 -12.3877 707.811 -11.8946Z" fill="#9E54CF"/>
<path d="M700.96 -5.68058C700.172 -4.49711 699.383 -2.42605 699.087 -0.650855C698.595 2.11056 698.644 2.50505 699.58 4.083C701.503 7.18959 701.995 7.2389 702.34 4.28024C702.488 2.85023 702.587 -0.45361 702.488 -3.01778L702.34 -7.70232L700.96 -5.68058Z" fill="#9E54CF"/>
<path d="M870.014 -5.62881C869.274 -4.1988 867.056 7.98102 866.416 14.2928C866.169 17.0049 866.218 17.5967 866.908 17.8432C867.352 18.0405 867.549 18.4843 867.401 18.9281C867.253 19.3225 867.303 19.6677 867.549 19.6677C867.796 19.6677 868.387 20.3581 868.88 21.1471C869.323 21.9853 870.309 23.2181 870.999 23.9578C872.231 25.1412 872.33 25.1906 872.971 24.303C873.316 23.8098 873.464 23.3167 873.217 23.1688C873.02 23.0209 872.971 20.3088 873.119 17.2022L873.365 11.5314L874.203 13.3066C874.893 14.7366 875.041 16.1666 874.942 20.4567C874.844 23.4154 874.696 26.0288 874.548 26.3247C874.351 26.5713 874.104 27.4095 873.907 28.1492C873.611 29.4313 873.611 29.4313 875.09 28.7409C876.47 28.0506 876.766 28.0506 879.624 29.1847C882.582 30.3682 884.11 30.7134 886.081 30.5655C886.87 30.5161 886.968 30.0723 886.87 26.6699L886.722 22.7743L883.617 21.1964C881.004 19.8157 880.561 19.3719 880.758 18.4843C881.3 16.1666 882.483 8.37551 882.779 5.31823L883.074 2.11301L879.477 0.189882C877.456 -0.845648 875.78 -1.88118 875.681 -2.12774C875.583 -2.32498 875.287 -2.52222 875.041 -2.52222C874.794 -2.52222 873.562 -3.16327 872.33 -3.95224C870.851 -4.83984 870.26 -5.43157 870.704 -5.62881C871.147 -5.77675 871.196 -5.92468 870.802 -5.92468C870.506 -5.97399 870.112 -5.82606 870.014 -5.62881Z" fill="#0A9CFF"/>
<g filter="url(#filter0_f_2973_1531)">
<path d="M-56.8241 -1.78321C-56.6762 -0.599747 -56.0848 -0.106636 -52.2404 1.81649C-44.601 5.66275 -36.8136 8.81865 -27.1042 12.0239C-15.9161 15.7222 4.19291 20.8998 10.9945 21.8368C11.9309 21.9847 12.8181 22.1819 12.9659 22.3792C13.4588 22.8723 11.1423 24.4502 8.23442 25.6337L5.62222 26.7185L5.77008 30.2196L5.91794 33.7207L9.12158 33.6714C14.346 33.6221 14.4445 33.5235 14.4938 26.5706C14.5431 22.4285 14.3953 20.6533 14.0503 20.6533C13.7052 20.6533 11.6352 19.3219 9.4173 17.7439C5.47436 14.8839 5.27721 14.7853 -1.7215 13.2566C-22.1755 8.81865 -41.1016 3.24651 -56.0848 -2.76943C-56.8733 -3.1146 -56.9719 -2.91736 -56.8241 -1.78321Z" fill="#FFE75B"/>
</g>
<path d="M782.53 -1.23966C782.629 -0.499995 782.974 0.190359 783.319 0.338292C783.812 0.486225 783.96 0.141048 783.812 -0.845172C783.713 -1.58484 783.368 -2.27519 783.023 -2.42312C782.53 -2.57106 782.382 -2.22588 782.53 -1.23966Z" fill="#FF6A57"/>
<path d="M531.858 -0.947495C532.449 0.0387249 537.131 5.85742 537.329 5.85742C537.427 5.85742 538.216 5.51224 539.004 5.06845C540.483 4.32878 540.483 4.27947 539.645 2.99738C536.984 -1.19405 536.589 -1.53923 533.977 -1.53923C532.104 -1.53923 531.611 -1.39129 531.858 -0.947495Z" fill="#FF6A57"/>
<path d="M180.196 1.3698C179.556 2.50395 179.506 2.89844 180.049 2.89844C180.689 2.89844 181.626 0.975309 181.133 0.679443C180.886 0.53151 180.443 0.827376 180.196 1.3698Z" fill="#FF6A57"/>
<path d="M861.783 2.15877C861.29 2.7505 861.29 2.89844 861.931 2.89844C863.064 2.89844 864.247 2.35602 864.247 1.86291C864.247 1.12324 862.423 1.3698 861.783 2.15877Z" fill="#0A9CFF"/>
<path d="M175.021 2.70336C174.577 3.83752 174.676 4.87305 175.168 4.87305C175.711 4.87305 176.203 2.45681 175.711 2.16094C175.513 2.01301 175.168 2.25956 175.021 2.70336Z" fill="#FF6A57"/>
<path d="M598.347 2.25799C597.016 2.40592 595.636 2.70179 595.291 2.99766C594.798 3.39215 594.65 5.70976 594.65 12.0216V20.5524L596.178 21.0948C597.312 21.4893 598.248 21.4893 599.628 21.0455C601.255 20.5524 601.551 20.3058 601.551 19.073C601.551 18.3334 601.107 16.854 600.565 15.8678C599.283 13.4516 599.283 9.35878 600.565 5.26596C601.698 1.66626 601.649 1.91282 601.206 2.01144C600.959 2.06075 599.727 2.15937 598.347 2.25799Z" fill="#FFE75B"/>
<path d="M694.554 3.24472C693.765 3.98438 694.307 4.42818 695.786 4.28025C697.807 4.08301 698.25 2.89954 696.328 2.89954C695.49 2.89954 694.702 3.04747 694.554 3.24472Z" fill="#9E54CF"/>
<path d="M856.459 4.18417C856.558 4.92383 856.903 5.61419 857.248 5.76212C857.74 5.91005 857.888 5.56488 857.74 4.57866C857.642 3.83899 857.297 3.14864 856.952 3.0007C856.459 2.85277 856.311 3.19795 856.459 4.18417Z" fill="#0A9CFF"/>
<path d="M592.087 6.00543C591.298 7.58338 590.707 9.0134 590.707 9.25995C590.707 9.4572 586.665 9.80237 581.736 10.0489C576.758 10.2462 571.633 10.542 570.302 10.7393C567.985 11.0351 567.887 11.0845 567.69 12.761C566.901 19.9604 566.802 21.5877 566.95 22.0808C567.246 22.9191 569.218 22.7712 575.625 21.3905C584.989 19.418 584.299 19.7632 586.566 16.0649C588.834 12.4159 588.982 12.4159 590.608 16.2128C591.643 18.629 593.023 20.1084 593.565 19.3687C593.762 19.1222 593.812 15.3745 593.664 11.0351L593.417 3.14539L592.087 6.00543ZM590.312 11.5283C590.115 12.8103 589.228 13.2541 589.228 12.12C589.228 11.6269 590.115 10.2955 590.509 10.2955C590.559 10.2955 590.46 10.8379 590.312 11.5283Z" fill="#FFE75B"/>
<path d="M436.931 6.20407C441.318 10.79 441.367 10.8393 442.895 9.95171C444.423 9.06411 444.374 9.0148 441.959 5.95752C440.332 3.98508 440.135 3.88646 437.523 3.88646H434.763L436.931 6.20407Z" fill="#FF6A57"/>
<path d="M430.377 5.66247C430.18 5.85972 430.032 6.20489 430.032 6.45145C430.032 7.09249 432.497 6.74732 432.644 6.10627C432.743 5.51454 430.87 5.16936 430.377 5.66247Z" fill="#FF6A57"/>
<path d="M102.273 6.25446C102.273 6.50102 102.618 7.04344 103.062 7.38862C103.752 7.98035 103.851 7.93104 103.703 7.14206C103.506 6.15584 102.273 5.41618 102.273 6.25446Z" fill="#FF6A57"/>
<g filter="url(#filter1_f_2973_1531)">
<path d="M483.605 9.16278C483.408 10.7407 483.161 14.4391 483.013 17.447L482.718 22.8712L487.4 26.323C490.801 28.7885 492.082 30.0213 491.934 30.6131C491.688 31.6979 491.836 31.6979 493.364 30.7117C494.892 29.7255 494.941 28.9365 493.512 29.1337L492.378 29.2817L492.23 18.5812L492.132 7.93L488.78 7.38758C486.956 7.0424 485.133 6.69723 484.689 6.54929C484.049 6.35205 483.851 6.84516 483.605 9.16278Z" fill="#FF6A57"/>
</g>
<path d="M624.517 7.78226C624.37 7.9795 624.764 8.66985 625.405 9.26159C626.834 10.593 627.721 9.7547 626.39 8.27537C625.454 7.23984 624.912 7.0919 624.517 7.78226Z" fill="#9E54CF"/>
<path d="M334.414 9.0641C334.414 9.75445 334.66 10.2969 334.907 10.2969C335.203 10.2969 335.4 9.75445 335.4 9.0641C335.4 8.37375 335.203 7.83133 334.907 7.83133C334.66 7.83133 334.414 8.37375 334.414 9.0641Z" fill="#FF6A57"/>
<path d="M699.63 8.71808C699.63 9.40843 701.552 10.9864 701.946 10.5919C702.144 10.3947 702.045 9.85223 701.798 9.40843C701.207 8.47153 699.63 7.97842 699.63 8.71808Z" fill="#9E54CF"/>
<path d="M543.392 10.2487C543.392 11.2842 543.638 11.7773 544.18 11.7773C544.722 11.7773 544.87 11.3829 544.772 10.4459C544.574 8.52282 543.392 8.37489 543.392 10.2487Z" fill="#FF6A57"/>
<path d="M44.9531 9.60741C44.4603 10.1005 44.5095 12.1716 45.0517 12.4674C45.6431 12.8619 46.2346 10.2484 45.6924 9.70603C45.4953 9.50878 45.1503 9.45947 44.9531 9.60741Z" fill="#FF6A57"/>
<path d="M383.011 11.6309C382.863 12.8637 382.715 14.491 382.715 15.2799V16.6113L384.686 15.5758C386.313 14.6389 386.559 14.2937 386.313 13.2582C385.869 11.3844 385.278 10.3981 384.243 9.85572C383.454 9.41192 383.306 9.60917 383.011 11.6309Z" fill="#FF6A57"/>
<path d="M135.297 10.7418C135.297 11.3335 135.543 11.7773 135.79 11.7773C136.085 11.7773 136.283 11.4815 136.283 11.087C136.283 10.6925 136.085 10.1994 135.79 10.0515C135.543 9.90353 135.297 10.1994 135.297 10.7418Z" fill="black"/>
<path d="M816.094 10.3961C816.193 10.7412 816.784 11.0371 817.425 11.0371C818.066 11.0371 818.657 10.7412 818.805 10.3961C818.903 10.0016 818.46 9.80433 817.425 9.80433C816.39 9.80433 815.946 10.0016 816.094 10.3961Z" fill="#FF6A57"/>
<path d="M711.262 11.8264C710.819 13.9961 710.917 18.1875 711.361 18.1875C711.558 18.1875 712.494 17.5465 713.381 16.8068C714.811 15.6233 715.008 15.2288 714.663 13.8481C714.515 12.9605 713.726 11.8757 712.938 11.284L711.558 10.2977L711.262 11.8264Z" fill="#9E54CF"/>
<path d="M166.84 11.7301C166.84 12.2232 168.023 12.7656 168.959 12.7656C169.304 12.7656 169.107 12.4204 168.614 12.026C167.53 11.1877 166.84 11.0891 166.84 11.7301Z" fill="black"/>
<path d="M721.956 13.1576C720.822 13.6014 719.787 14.1438 719.59 14.2917C719.294 14.6369 725.012 19.0256 727.18 20.1597C728.265 20.7022 728.511 20.6528 729.497 19.4694C730.138 18.779 730.828 18.1873 731.074 18.1873C731.32 18.1873 731.863 17.7928 732.208 17.349C732.602 16.9052 732.651 16.6587 732.355 16.8559C732.01 17.0531 731.665 16.9052 731.518 16.56C731.32 16.0176 724.765 12.2207 724.223 12.3193C724.125 12.3193 723.09 12.7138 721.956 13.1576Z" fill="#9E54CF"/>
<path d="M52.3471 13.9488C51.9035 14.5899 51.7063 15.2309 51.8542 15.4282C52.2978 15.872 53.9735 14.7871 53.9735 13.9981C53.9735 12.7654 53.1357 12.7654 52.3471 13.9488Z" fill="#FF6A57"/>
<path d="M20.7046 14.7364C21.1974 15.2789 21.6903 15.7227 21.7889 15.7227C21.8382 15.7227 21.9367 15.2789 21.9367 14.7364C21.9367 14.0461 21.5917 13.7502 20.8524 13.7502C19.8667 13.7502 19.8174 13.7995 20.7046 14.7364Z" fill="#FFE75B"/>
<path d="M257.034 14.2404C255.013 14.6842 255.112 14.7829 257.773 15.0294C259.991 15.276 261.963 14.9308 261.963 14.2898C261.963 13.7966 259.351 13.7966 257.034 14.2404Z" fill="#FF6A57"/>
<path d="M263.097 14.092C263.541 14.1907 264.231 14.1907 264.576 14.092C264.872 13.9441 264.527 13.8455 263.689 13.8455C262.9 13.8455 262.605 13.9441 263.097 14.092Z" fill="#FF6A57"/>
<path d="M372.464 15.7708C372.563 16.116 372.957 16.5105 373.302 16.6091C373.696 16.757 373.893 16.5598 373.746 16.1653C373.647 15.8201 373.253 15.4256 372.908 15.327C372.513 15.1791 372.316 15.3763 372.464 15.7708Z" fill="#FF6A57"/>
<path d="M520.621 16.2624C520.128 16.509 519.733 17.0514 519.733 17.4459C519.733 18.0376 519.98 18.0376 520.966 17.5938C521.656 17.2979 522.198 16.7555 522.198 16.361C522.198 15.6214 521.754 15.5721 520.621 16.2624Z" fill="#FF6A57"/>
<path d="M78.8633 17.1491C78.5183 17.7408 80.3912 18.3819 81.0812 17.9381C81.3276 17.7901 81.5741 17.445 81.5741 17.1491C81.5741 16.5574 79.2576 16.5574 78.8633 17.1491Z" fill="#FF6A57"/>
<path d="M265.906 18.1887C263.885 18.5831 261.914 19.1256 261.618 19.3228C261.224 19.5694 260.977 19.4707 260.977 19.1256C260.977 18.7311 260.829 18.6818 260.336 19.1256C259.942 19.4214 259.548 19.5201 259.351 19.3721C257.675 17.6955 265.61 31.9957 267.729 34.5106C268.321 35.2503 278.474 37.8144 278.918 37.3706C279.164 37.1241 273.94 23.5142 272.264 19.9145C271.623 18.5338 270.736 17.449 270.342 17.449C269.947 17.3997 267.927 17.7449 265.906 18.1887ZM271.623 27.3605C271.475 27.8043 271.327 28.3467 271.327 28.5933C271.327 28.8398 271.13 29.0371 270.835 29.0371C270.292 29.0371 270.145 27.4098 270.687 26.9167C271.278 26.2757 271.919 26.5715 271.623 27.3605Z" fill="#2BEBE0"/>
<g filter="url(#filter2_f_2973_1531)">
<path d="M15.9233 24.5471C16.0218 28.2454 16.219 31.352 16.3175 31.4999C16.7611 31.8944 18.2397 30.711 19.3733 29.0344C20.1126 27.9002 20.4576 26.7168 20.4576 25.1388C20.4083 22.476 19.8662 21.3419 17.5004 19.3201L15.7754 17.7915L15.9233 24.5471Z" fill="#FFE75B"/>
</g>
<path d="M562.169 18.6803C562.169 19.42 561.873 20.209 561.577 20.5048C561.281 20.8007 561.134 21.5404 561.232 22.1814C561.331 22.8225 561.035 23.6114 560.641 23.9566C560 24.499 560 24.5483 560.739 24.5977C561.774 24.5977 562.908 22.8225 562.021 22.5266C561.626 22.3787 561.626 22.0335 562.07 21.2445C562.415 20.6035 562.563 19.5186 562.464 18.779L562.267 17.4476L562.169 18.6803Z" fill="#FF6A57"/>
<path d="M733.636 18.1869C733.242 18.4334 733.045 18.7293 733.143 18.8772C733.291 18.9758 733.833 18.7786 734.326 18.3841C735.41 17.6444 734.819 17.4472 733.636 18.1869Z" fill="#9E54CF"/>
<path d="M766.068 18.8761C765.921 19.5665 766.019 20.1582 766.266 20.1582C766.956 20.1582 767.35 18.6789 766.808 18.1365C766.463 17.7913 766.216 18.0378 766.068 18.8761Z" fill="#FF6A57"/>
<path d="M602.781 19.1749C602.584 19.4707 603.028 19.668 603.767 19.668C604.506 19.668 604.95 19.4707 604.753 19.1749C604.605 18.879 604.161 18.6817 603.767 18.6817C603.373 18.6817 602.929 18.879 602.781 19.1749Z" fill="#FFE75B"/>
<path d="M117.553 20.4058C117.553 21.244 119.475 21.8851 120.066 21.2934C120.313 21.0468 119.869 20.6523 119.031 20.3071C117.848 19.8633 117.553 19.8633 117.553 20.4058Z" fill="#FF6A57"/>
<path d="M795.886 21.392C795.492 22.4768 796.182 23.0193 796.724 22.1317C797.365 21.1454 797.315 20.6523 796.724 20.6523C796.428 20.6523 796.083 20.9975 795.886 21.392Z" fill="#FF6A57"/>
<path d="M407.161 22.8728C406.866 23.7604 407.26 25.0918 407.901 25.0918C408.147 25.0918 408.344 24.4014 408.344 23.6125C408.344 22.0345 407.654 21.64 407.161 22.8728Z" fill="#FF6A57"/>
<path d="M510.369 23.1658C509.876 24.0534 509.926 24.1521 510.714 24.0041C511.207 23.9055 511.651 23.4617 511.749 22.9686C511.996 21.7851 511.01 21.9331 510.369 23.1658Z" fill="#FF6A57"/>
<path d="M865.036 22.9687C864.248 24.9904 864.642 25.5821 867.106 25.6315C870.754 25.7794 871.049 25.8287 871.444 26.1739C871.641 26.4204 872.035 26.5684 872.331 26.5684C872.577 26.5684 872.331 26.1246 871.739 25.5328C871.148 24.9904 870.458 24.6452 870.211 24.7932C870.014 24.9411 869.423 24.6452 868.93 24.1028C867.649 22.7221 865.381 22.0317 865.036 22.9687Z" fill="#0A9CFF"/>
<path d="M70.5833 24.4005C69.844 25.1402 70.2876 25.584 71.7169 25.584C72.5547 25.584 73.1955 25.3374 73.1955 25.0909C73.1955 24.795 72.9983 24.5978 72.7519 24.5978C72.5055 24.5978 71.9633 24.4991 71.6183 24.3512C71.224 24.2033 70.7804 24.2526 70.5833 24.4005Z" fill="#FF6A57"/>
<path d="M733.982 27.2614C734.228 28.5928 735.608 29.4311 735.608 28.3462C735.608 27.1135 735.017 26.0779 734.376 26.0779C733.982 26.0779 733.834 26.5217 733.982 27.2614Z" fill="#9E54CF"/>
<g filter="url(#filter3_f_2973_1531)">
<path d="M0.350255 26.9634C0.843122 28.0975 3.55389 31.4507 3.94819 31.5C4.24391 31.5 4.44105 30.4152 4.44105 29.0838V26.6675H2.32172C1.13884 26.6182 0.251682 26.7661 0.350255 26.9634Z" fill="#FFE75B"/>
</g>
<path d="M444.768 27.3585C444.324 27.9009 444.521 28.0488 446 28.0488C448.02 28.0488 448.415 27.3092 446.542 26.964C445.852 26.8161 445.063 27.0133 444.768 27.3585Z" fill="#FF6A57"/>
<path d="M213.663 29.4278C212.135 30.1675 211.888 30.5619 211.691 32.4851C211.346 35.6903 211.642 37.071 212.628 36.6765C213.071 36.4793 214.895 36.0848 216.768 35.7889L220.07 35.2465V31.8933V28.5402H217.753C216.423 28.5895 214.599 28.984 213.663 29.4278Z" fill="#FF6A57"/>
<path d="M221.646 31.992C221.794 35.4438 221.843 35.641 223.174 36.0848C223.962 36.3314 224.652 36.43 224.8 36.2821C225.145 35.9369 226.18 29.5265 225.934 29.2799C225.786 29.1813 224.751 28.9347 223.617 28.7375L221.498 28.3923L221.646 31.992Z" fill="#FF6A57"/>
<path d="M183.498 30.1195C183.103 30.4647 181.92 31.2536 180.836 31.7961C179.062 32.7823 178.914 33.0288 178.766 35.2478L178.618 37.6641L179.998 36.2834C180.787 35.5437 181.674 34.952 182.019 34.952C182.61 34.952 185.568 32.2399 185.568 31.6974C185.568 31.5495 185.272 31.5002 184.927 31.6481C184.434 31.8454 184.286 31.5495 184.483 30.7112C184.73 29.3798 184.483 29.2319 183.498 30.1195Z" fill="#2BEBE0"/>
<path d="M415.787 30.2192C415.048 30.6137 414.802 31.0082 415.147 31.2054C415.787 31.5999 417.71 30.7123 417.71 30.022C417.71 29.3809 417.217 29.4302 415.787 30.2192Z" fill="#FF6A57"/>
<path d="M59.5428 30.3632L58.5078 30.5604L59.5921 33.8149C60.6271 36.9708 60.775 37.1188 62.845 37.7105C64.0279 38.0557 65.1122 38.2529 65.2108 38.1543C65.3587 38.0557 64.6687 36.1819 63.7815 34.0122C62.1057 30.018 61.9579 29.8701 59.5428 30.3632Z" fill="#2BEBE0"/>
<path d="M79.4056 31.7944C79.1592 32.3861 79.4056 32.534 80.4406 32.3861C81.1307 32.2875 81.8207 31.9423 81.9685 31.5971C82.2643 30.7095 79.7506 30.8575 79.4056 31.7944Z" fill="#FF6A57"/>
<path d="M207.798 33.8195C206.96 34.8057 206.27 35.9892 206.221 36.433C206.122 39.934 206.023 42.2517 206.073 42.2024C206.073 42.153 207.058 41.0189 208.241 39.7368C210.163 37.6164 210.361 37.1726 210.262 35.0523C210.213 33.8195 210.016 32.5867 209.769 32.3402C209.523 32.0936 208.685 32.784 207.798 33.8195Z" fill="#FF6A57"/>
<path d="M361.374 35.248C361.522 35.7411 361.966 36.6287 362.36 37.2204C362.705 37.7628 362.853 38.4039 362.656 38.6011C362.459 38.7983 362.656 38.7983 363.099 38.6504C364.282 38.1573 364.529 37.1218 363.592 36.3328C361.227 34.3604 360.98 34.2617 361.374 35.248Z" fill="#FF6A57"/>
<path d="M454.081 34.8033C454.426 34.9512 454.87 34.9019 455.018 34.7539C455.215 34.606 454.919 34.4581 454.377 34.5074C453.835 34.5074 453.687 34.6553 454.081 34.8033Z" fill="#FF6A57"/>
<path d="M87.4893 35.8893C87.4893 36.4811 89.4114 37.1221 89.855 36.6783C90.2 36.3331 89.0171 35.4455 88.13 35.4455C87.785 35.4455 87.4893 35.6428 87.4893 35.8893Z" fill="#FF6A57"/>
<path d="M765.182 39.3412C765.182 40.2782 766.463 41.7082 766.956 41.2644C767.301 40.8699 766.266 38.4043 765.675 38.4043C765.428 38.4043 765.182 38.7988 765.182 39.3412Z" fill="#FF6A57"/>
<path d="M519.733 39.2884C519.733 40.0281 521.064 41.5074 521.557 41.3102C522.346 41.0143 521.409 38.894 520.473 38.894C520.078 38.894 519.733 39.0912 519.733 39.2884Z" fill="#FF6A57"/>
<path d="M371.528 40.5744C371.725 41.0675 371.873 41.6593 371.873 41.9058C371.873 42.1524 372.119 42.3496 372.415 42.3496C373.154 42.3496 372.76 40.2292 371.922 39.9827C371.429 39.8347 371.331 39.9827 371.528 40.5744Z" fill="#FF6A57"/>
<path d="M539.99 41.068C539.152 41.9556 538.955 42.5473 539.25 42.8432C539.94 43.5335 541.567 41.7583 541.32 40.6242C541.222 39.9338 540.975 40.0324 539.99 41.068Z" fill="#FF6A57"/>
<path d="M4.68788 43.3341C4.29359 44.1231 4.29359 44.3203 4.88503 44.3203C5.67362 44.3203 6.31435 42.9889 5.67362 42.5944C5.42719 42.4465 4.9836 42.7917 4.68788 43.3341Z" fill="#FFE75B"/>
<path d="M687.9 42.9402C687.555 43.2854 687.309 43.8278 687.309 44.173C687.309 44.7154 687.604 44.6661 688.787 44.0744C689.625 43.6306 690.266 43.0881 690.266 42.8416C690.266 42.1512 688.59 42.2498 687.9 42.9402Z" fill="#9E54CF"/>
<path d="M854.391 44.5665C854.391 45.3062 854.588 45.75 854.883 45.5527C855.179 45.4048 855.376 44.961 855.376 44.5665C855.376 44.172 855.179 43.7282 854.883 43.5803C854.588 43.3831 854.391 43.8269 854.391 44.5665Z" fill="#0A9CFF"/>
<path d="M503.962 44.8134C503.962 45.5038 505.243 45.9476 505.983 45.5531C506.377 45.2572 506.328 45.06 505.884 44.7641C504.948 44.1724 503.962 44.2217 503.962 44.8134Z" fill="#FF6A57"/>
<path d="M839.111 44.7162C839.111 44.9134 839.555 45.3572 840.097 45.7024C841.181 46.3435 841.428 45.8503 840.491 44.9134C839.801 44.2231 839.111 44.1245 839.111 44.7162Z" fill="#0A9CFF"/>
<path d="M622.348 45.6029C621.757 45.9974 621.264 46.6877 621.264 47.0822C621.264 47.7233 621.461 47.674 622.742 47.0329C623.58 46.5891 624.221 46.0467 624.221 45.8001C624.221 44.9619 623.383 44.8632 622.348 45.6029Z" fill="#FFE75B"/>
<path d="M308.639 45.6527C308.195 45.7513 307.899 46.0472 308.047 46.2937C308.343 46.7868 310.265 46.343 310.265 45.7513C310.265 45.3075 310.068 45.2582 308.639 45.6527Z" fill="#FF6A57"/>
<path d="M783.91 46.297C783.91 46.8394 784.058 47.2832 784.304 47.2832C784.502 47.2832 784.945 46.8394 785.29 46.297C785.832 45.4094 785.783 45.3108 784.896 45.3108C784.255 45.3108 783.91 45.6559 783.91 46.297Z" fill="#FF6A57"/>
<path d="M23.0223 49.7968C23.6137 51.572 24.8459 51.72 24.5501 50.0434C24.4023 49.4023 23.9094 48.7613 23.4166 48.6134C22.628 48.4161 22.5787 48.5641 23.0223 49.7968Z" fill="#0A9CFF"/>
<path d="M44.9034 49.3508C44.5091 49.9425 44.2627 50.5836 44.4106 50.8301C44.8541 51.5205 46.5299 49.7453 46.2342 48.9563C45.8892 48.0687 45.7906 48.0687 44.9034 49.3508Z" fill="#0A9CFF"/>
<path d="M51.7554 49.7471C51.5582 50.043 52.1004 50.2402 52.9383 50.2402C53.7761 50.2402 54.4662 49.9937 54.4662 49.7471C54.4662 49.4513 53.924 49.254 53.2833 49.254C52.5933 49.254 51.9033 49.4513 51.7554 49.7471Z" fill="#0A9CFF"/>
<path d="M2.4189 51.0279C1.92604 52.9017 2.96106 53.5921 3.60179 51.8169C3.89751 50.9786 3.99608 50.1896 3.84822 50.0417C3.20749 49.4499 2.71462 49.7951 2.4189 51.0279Z" fill="#0A9CFF"/>
<path d="M853.896 51.9172C853.896 52.5583 855.129 54.1855 855.622 54.1855C855.72 54.1855 855.572 53.4952 855.326 52.7062C854.784 51.1776 853.896 50.6845 853.896 51.9172Z" fill="#0A9CFF"/>
<path d="M152.547 60.5967C152.547 60.8433 153.138 61.0898 153.828 61.0898C154.518 61.0898 154.962 60.8926 154.765 60.5967C154.617 60.3009 154.025 60.1036 153.483 60.1036C152.99 60.1036 152.547 60.3009 152.547 60.5967Z" fill="#0A9CFF"/>
<path d="M54.1216 62.6159C54.3187 63.257 54.4666 63.9473 54.4666 64.1446C54.4666 64.3911 54.713 64.5391 55.0087 64.5391C55.748 64.5391 55.3044 61.9256 54.5159 61.679C54.023 61.4818 53.9244 61.7283 54.1216 62.6159Z" fill="#0A9CFF"/>
<path d="M159.891 63.6017C159.3 64.4893 159.103 65.0317 159.497 64.7852C160.039 64.4893 160.039 64.5386 159.595 65.0317C159.152 65.4755 159.103 67.3493 159.3 71.6394C159.448 74.9432 159.645 77.7046 159.743 77.8033C159.99 78.0991 165.362 73.957 165.362 73.4146C165.362 72.7735 161.813 62.862 161.419 62.4182C161.222 62.1717 160.532 62.7141 159.891 63.6017Z" fill="#0A9CFF"/>
<path d="M134.804 66.2152C134.804 66.659 137.416 73.6612 137.909 74.6474C138.204 75.1898 138.451 75.7815 138.5 75.9788C138.5 76.1267 138.648 76.4719 138.845 76.6691C139.042 76.8171 139.092 76.4719 138.944 75.8309C138.599 73.957 138.599 70.0615 139.042 69.4204C139.24 69.0259 139.19 68.9766 138.845 69.1739C138.5 69.3711 138.254 69.3218 138.254 69.0753C138.254 68.8287 137.465 67.9904 136.529 67.3001C135.592 66.5604 134.804 66.0673 134.804 66.2152Z" fill="#0A9CFF"/>
<path d="M146.14 66.4622C146.14 66.7088 146.485 67.0539 146.928 67.2019C148.111 67.6457 148.259 67.5471 147.421 66.7581C146.583 65.9198 146.14 65.8212 146.14 66.4622Z" fill="#0A9CFF"/>
<path d="M815.65 70.6505C815.157 71.045 814.862 71.4888 815.059 71.6861C815.601 72.2285 817.425 71.4395 817.425 70.6505C817.425 69.7629 816.882 69.7629 815.65 70.6505Z" fill="#FF6A57"/>
<path d="M107.301 72.9224C106.316 74.5003 106.611 75.1907 107.794 74.0072C108.534 73.3168 108.731 72.7744 108.386 72.4292C108.09 72.1334 107.696 72.2813 107.301 72.9224Z" fill="#0A9CFF"/>
<path d="M820.53 73.2689C819.889 73.3676 819.396 73.7127 819.396 73.9593C819.396 74.699 821.664 74.4524 822.354 73.6634C822.994 72.8744 822.797 72.8251 820.53 73.2689Z" fill="#0A9CFF"/>
<path d="M96.2616 75.4859C95.7687 76.2255 95.5716 76.9159 95.818 77.0638C96.4587 77.4583 97.4445 76.0776 97.2473 75.0421C97.0995 74.3517 96.9516 74.4503 96.2616 75.4859Z" fill="#0A9CFF"/>
<path d="M70.4347 80.5156C70.2869 81.2553 70.3362 82.0935 70.5826 82.3401C70.9276 82.6853 71.2233 82.3894 71.4205 81.5018C71.6176 80.7621 71.5683 79.9732 71.2726 79.6773C70.9276 79.3321 70.6812 79.628 70.4347 80.5156Z" fill="#0A9CFF"/>
<path d="M77.3843 86.7294C77.1872 87.0253 77.2365 87.4198 77.3843 87.7156C77.5322 88.0115 77.335 88.0608 76.9407 87.9129C76.4479 87.7156 76.1521 87.8636 76.1521 88.406C76.1521 88.8005 75.3143 89.7374 74.3285 90.4277C73.2935 91.1181 72.6528 91.6605 72.8499 91.6605C73.0471 91.6605 73.0471 92.055 72.8007 92.4988C72.4064 93.1398 72.8992 94.1754 74.7228 96.8382C77.5815 101.079 79.6022 105.32 79.9472 107.884C80.1937 109.758 80.1937 109.758 77.8772 110.399C75.7086 110.99 70.0406 110.941 58.2118 110.103C56.5853 110.004 55.4024 110.004 55.5503 110.152C55.6489 110.3 54.3674 111.878 52.5931 113.703C48.3544 118.19 45.3972 121.74 45.9394 121.74C46.1365 121.74 45.9394 121.987 45.4465 122.283C44.2143 122.973 44.8058 123.614 49.4387 126.573C56.6346 131.159 62.1547 134.068 63.3376 133.821C63.929 133.723 65.3584 132.638 66.4919 131.454C67.5763 130.271 68.9563 129.137 69.4492 128.94C70.287 128.644 70.0899 128.348 67.9706 126.869C66.6398 125.932 63.0419 123.663 59.9861 121.888C56.9303 120.113 54.466 118.584 54.5646 118.535C54.6631 118.486 56.4867 118.732 58.6554 119.127C66.6891 120.557 73.9342 119.028 78.1236 114.886C80.588 112.47 83.4959 107.884 84.5309 104.728C85.9602 100.438 84.728 95.4081 80.9823 89.836C78.8629 86.7294 77.8772 85.8911 77.3843 86.7294Z" fill="#0A9CFF"/>
<path d="M92.0222 87.3687C91.5786 87.9111 91.7264 88.0098 92.9586 88.0098C93.7472 88.0098 94.3386 87.8125 94.2401 87.5167C93.9443 86.6784 92.6136 86.6291 92.0222 87.3687Z" fill="#0A9CFF"/>
<path d="M5.27905 90.1793C5.37762 91.0669 5.72263 91.9052 6.06764 92.0532C6.9548 92.349 6.80694 89.9328 5.87049 89.1438C5.18048 88.6014 5.13119 88.7 5.27905 90.1793Z" fill="#0A9CFF"/>
<path d="M832.211 95.1114C832.211 95.6539 832.31 96.0977 832.457 96.0977C832.556 96.0977 832.901 95.6539 833.197 95.1114C833.64 94.3225 833.591 94.1252 832.95 94.1252C832.556 94.1252 832.211 94.569 832.211 95.1114Z" fill="#0A9CFF"/>
<path d="M799.682 104.875C799.682 105.862 801.21 112.075 801.653 112.864C802.047 113.505 802.097 113.505 802.146 112.864C802.146 112.469 802.54 112.913 803.033 113.85C804.265 116.365 806.582 117.499 810.377 117.45C814.517 117.4 815.207 116.759 815.749 112.469C815.946 110.645 816.143 108.623 816.193 107.933L816.291 106.651L813.531 107.587C811.412 108.327 809.983 108.475 807.321 108.228C802.491 107.785 802.195 107.735 802.392 107.39C802.54 107.242 801.949 106.453 801.16 105.714C800.322 104.925 799.682 104.53 799.682 104.875ZM803.132 110.25C803.132 111.187 802.984 111.434 802.639 111.089C802.343 110.793 802.245 110.201 802.442 109.757C802.885 108.574 803.132 108.722 803.132 110.25Z" fill="#FF6A57"/>
<path d="M818.56 105.074C817.475 106.454 817.229 107.095 817.968 106.701C818.51 106.356 818.56 106.405 818.067 106.997C817.771 107.391 817.377 109.019 817.18 110.646C816.982 112.273 816.785 114.098 816.687 114.689C816.49 116.07 816.539 116.07 818.806 114.837C821.96 113.21 821.862 113.506 820.925 108.969C820.137 104.827 819.496 103.841 818.56 105.074Z" fill="#0A9CFF"/>
<path d="M834.971 109.165C834.823 109.559 834.922 109.904 835.168 109.904C835.809 109.904 836.252 109.017 835.71 108.721C835.464 108.573 835.168 108.77 834.971 109.165Z" fill="#0A9CFF"/>
<path d="M46.6787 111.088C44.0172 113.504 40.6164 120.26 42.095 120.26C42.8343 120.26 47.5659 115.674 47.5659 114.983C47.5659 114.638 47.763 114.342 48.0587 114.342C48.5516 114.342 51.4595 111.334 52.1495 110.102C52.4453 109.559 52.1002 109.411 50.5724 109.411C48.9459 109.411 48.1573 109.757 46.6787 111.088Z" fill="#0A9CFF"/>
<path d="M829.253 118.536C828.858 118.98 828.858 119.275 829.154 119.275C829.746 119.275 830.436 118.338 830.091 117.993C829.992 117.895 829.598 118.092 829.253 118.536Z" fill="#0A9CFF"/>
<path d="M68.6109 132.686C67.083 134.412 65.8015 136.138 65.8015 136.532C65.8015 136.927 65.358 138.11 64.8158 139.146C64.2737 140.132 63.8301 141.118 63.8301 141.266C63.8301 141.808 67.773 141.118 68.5616 140.428C69.8431 139.343 73.1946 133.327 73.1946 132.045C73.1946 130.911 72.406 129.629 71.716 129.629C71.5681 129.629 70.1881 131.009 68.6109 132.686Z" fill="#FF6A57"/>
<path d="M29.5767 132.095C29.1331 133.426 29.8724 134.56 30.3653 133.278C30.5624 132.785 30.7596 132.045 30.7596 131.7C30.8089 130.714 29.9217 131.01 29.5767 132.095Z" fill="#FF6A57"/>
<path d="M815.453 131.601C815.453 131.847 815.995 132.094 816.636 132.094C817.326 132.094 818.016 131.847 818.164 131.601C818.361 131.305 817.819 131.108 816.981 131.108C816.143 131.108 815.453 131.305 815.453 131.601Z" fill="#FF6A57"/>
<path d="M19.4242 133.871C18.882 134.562 18.9806 134.611 20.4592 134.463C21.3464 134.364 22.1842 134.019 22.3321 133.674C22.6278 132.787 20.2128 132.934 19.4242 133.871Z" fill="#FF6A57"/>
<path d="M784.303 146.295C782.973 146.394 781.938 146.591 781.938 146.788C781.938 146.986 783.318 148.564 785.043 150.24C788.345 153.495 788.148 153.495 790.76 151.522C790.858 151.424 789.971 150.191 788.788 148.761C786.669 146.197 786.57 146.147 784.303 146.295Z" fill="#FF6A57"/>
<path d="M79.8482 160.2C79.651 160.496 80.1932 160.693 81.031 160.693C81.8689 160.693 82.5589 160.447 82.5589 160.2C82.5589 159.904 82.0168 159.707 81.3761 159.707C80.686 159.707 79.996 159.904 79.8482 160.2Z" fill="#9E54CF"/>
<path d="M101.29 166.96C101.684 167.157 102.275 167.601 102.571 167.995C103.015 168.636 103.162 168.587 103.409 167.65C103.606 166.763 103.458 166.615 102.127 166.664C101.24 166.664 100.895 166.812 101.29 166.96Z" fill="#9E54CF"/>
<path d="M99.367 168.683C99.1699 169.324 98.8249 171.05 98.677 172.529C98.3813 175.142 98.4306 175.29 99.9092 176.326C100.747 176.918 101.634 177.312 101.831 177.164C102.275 176.918 102.768 174.008 102.866 171.345C102.916 169.866 102.669 169.225 101.733 168.535C100.205 167.351 99.8599 167.351 99.367 168.683Z" fill="#9E54CF"/>
<path d="M26.373 174.995C26.373 175.242 26.9152 175.488 27.5559 175.488C28.2459 175.488 28.936 175.242 29.0838 174.995C29.281 174.699 28.7388 174.502 27.9009 174.502C27.0631 174.502 26.373 174.699 26.373 174.995Z" fill="#9E54CF"/>
<path d="M807.369 176.227C807.813 176.918 808.355 177.312 808.602 177.164C809.242 176.77 808.158 174.995 807.271 174.995C806.679 174.995 806.679 175.192 807.369 176.227Z" fill="#FFE75B"/>
<path d="M73.9843 177.263C73.4422 178.643 73.6886 179.186 74.4279 178.249C74.8222 177.707 75.1672 177.115 75.1672 176.868C75.1672 176.178 74.28 176.424 73.9843 177.263Z" fill="#9E54CF"/>
<path d="M98.332 176.968C98.332 177.214 98.5785 177.461 98.8742 177.461C99.1206 177.461 99.2192 177.214 99.0713 176.968C98.9235 176.672 98.677 176.475 98.5292 176.475C98.4306 176.475 98.332 176.672 98.332 176.968Z" fill="#9E54CF"/>
<path d="M92.7627 183.426C93.1077 183.771 93.502 183.919 93.6499 183.771C93.7978 183.623 93.5513 183.327 93.0585 183.179C92.3684 182.883 92.3192 182.933 92.7627 183.426Z" fill="#9E54CF"/>
<g filter="url(#filter4_f_2973_1531)">
<path d="M11.7345 191.07C11.2416 191.514 11.0938 194.128 11.0938 200.292C11.0938 210.154 11.0938 210.203 15.1353 210.203C18.191 210.203 19.4725 208.97 19.3739 206.16C19.3246 204.68 18.8811 203.941 17.0082 202.116C14.5931 199.799 13.3117 196.938 12.6709 192.55C12.3752 190.775 12.2273 190.528 11.7345 191.07Z" fill="#9E54CF"/>
</g>
<g filter="url(#filter5_f_2973_1531)">
<path d="M7.59417 193.881C6.21414 194.818 5.86913 195.36 5.77056 197.037C5.57341 199.7 6.75629 204.187 8.2349 206.357C8.87562 207.294 9.51635 208.033 9.66421 208.033C10.1078 208.033 10.1078 194.029 9.66421 193.289C9.41778 192.895 8.82634 193.043 7.59417 193.881Z" fill="#9E54CF"/>
</g>
<g filter="url(#filter6_f_2973_1531)">
<path d="M43.8708 195.904C42.4415 196.545 40.8151 198.025 41.2094 198.37C41.3079 198.468 43.033 198.666 44.9552 198.814L48.5531 199.109L47.4195 197.285C46.0395 195.164 45.793 195.066 43.8708 195.904Z" fill="#9E54CF"/>
</g>
<g filter="url(#filter7_f_2973_1531)">
<path d="M788.148 203.694C788.001 204.335 787.853 206.9 787.853 209.414C787.853 214.493 787.754 214.395 791.944 215.134C793.767 215.48 793.964 215.381 796.429 212.866C797.858 211.436 799.435 209.661 799.879 208.921C800.372 208.182 800.963 207.688 801.209 207.836C801.456 207.984 801.653 207.984 801.653 207.836C801.653 207.393 798.351 205.913 793.57 204.286C790.859 203.349 788.592 202.609 788.543 202.609C788.493 202.609 788.346 203.103 788.148 203.694Z" fill="#FFE75B"/>
</g>
<g filter="url(#filter8_f_2973_1531)">
<path d="M22.1824 204.038C21.1474 204.235 20.6545 204.679 20.556 205.418C20.3588 206.947 20.9995 206.848 22.6753 205.073C23.4639 204.235 24.006 203.643 23.8582 203.643C23.7596 203.692 23.0203 203.84 22.1824 204.038Z" fill="#9E54CF"/>
</g>
<g filter="url(#filter9_f_2973_1531)">
<path d="M804.759 209.416C804.069 209.514 803.773 209.81 803.97 210.303C804.118 210.698 803.822 211.142 803.231 211.339C802.639 211.585 802.147 211.931 802.048 212.226C801.949 212.473 801.161 213.361 800.274 214.15C799.041 215.234 798.795 215.678 799.288 215.974C799.781 216.319 799.781 216.418 799.337 216.418C797.612 216.418 799.14 217.601 803.428 219.623C809.687 222.532 815.848 226.675 818.608 229.83C820.333 231.803 820.728 232.543 820.284 233.036C819.89 233.529 819.939 233.627 820.53 233.43C821.565 232.986 821.861 231.606 821.861 227.266C821.861 222.286 820.53 219.524 816.44 215.777C813.039 212.72 806.484 209.12 804.759 209.416Z" fill="#FFE75B"/>
</g>
<g filter="url(#filter10_f_2973_1531)">
<path d="M25.5366 214.446C24.6001 215.876 24.6987 216.813 25.6844 215.827C26.128 215.432 26.3744 214.692 26.2759 214.249C26.128 213.558 26.0294 213.558 25.5366 214.446Z" fill="#9E54CF"/>
</g>
<g filter="url(#filter11_f_2973_1531)">
<path d="M25.1407 217.601L23.6621 218.784L24.5493 220.559C24.9929 221.546 25.9293 222.581 26.6686 222.828C27.7529 223.272 28.1965 223.074 29.823 221.743L31.6958 220.165L30.3651 219.475C29.6751 219.129 28.5415 218.291 27.8515 217.65L26.6193 216.467L25.1407 217.601Z" fill="#9E54CF"/>
</g>
<path d="M797.463 216.911C797.611 217.158 797.857 217.404 798.005 217.404C798.104 217.404 798.202 217.158 798.202 216.911C798.202 216.615 797.956 216.418 797.66 216.418C797.414 216.418 797.315 216.615 797.463 216.911Z" fill="#FFE75B"/>
<g filter="url(#filter12_f_2973_1531)">
<path d="M31.1545 221.691C29.2324 223.171 29.0845 223.96 30.711 224.206C31.4503 224.305 32.0417 223.91 32.781 222.727C34.4568 219.916 33.9146 219.62 31.1545 221.691Z" fill="#9E54CF"/>
</g>
<path d="M69.7938 222.63C69.7938 223.172 69.9417 223.32 70.0896 222.926C70.2374 222.58 70.1881 222.137 70.0403 221.989C69.8924 221.791 69.7446 222.087 69.7938 222.63Z" fill="#9E54CF"/>
<path d="M796.725 235.401C796.725 235.795 796.823 236.141 796.922 236.141C797.02 236.141 797.217 235.795 797.415 235.401C797.562 235.006 797.464 234.661 797.217 234.661C796.922 234.661 796.725 235.006 796.725 235.401Z" fill="#FF6A57"/>
<path d="M819.891 240.283C819.299 241.91 819.201 244.425 819.841 243.734C820.679 242.847 821.419 239.937 820.926 239.444C820.581 239.099 820.236 239.395 819.891 240.283Z" fill="#FF6A57"/>
<path d="M840.737 271.596C839.16 272.928 836.843 274.999 835.562 276.182L833.245 278.302L834.674 282.445C835.463 284.713 836.252 286.685 836.399 286.833C837.089 287.573 847.538 277.76 847.292 276.577C847.193 276.182 846.799 274.999 846.306 274.012C845.863 272.977 845.518 271.744 845.518 271.251C845.518 270.363 844.63 269.18 843.99 269.18C843.743 269.18 842.314 270.265 840.737 271.596Z" fill="#2BEBE0"/>
<path d="M848.179 273.072C848.672 273.615 848.918 274.256 848.771 274.551C848.327 275.242 849.313 275.735 850.151 275.242C850.742 274.897 850.643 274.65 849.756 273.615C849.165 272.924 848.327 272.332 847.982 272.234C847.489 272.086 847.538 272.332 848.179 273.072Z" fill="#2BEBE0"/>
<path d="M830.289 280.867L829.205 281.755L831.472 283.974C833.69 286.094 833.739 286.144 833.394 284.812C833.247 284.023 832.704 282.642 832.261 281.706C831.423 279.98 831.374 279.98 830.289 280.867Z" fill="#2BEBE0"/>
<path d="M-0.242266 306.016C-0.636559 306.164 -2.21373 306.805 -3.74162 307.496C-6.45239 308.679 -6.55097 308.778 -6.55097 310.652C-6.60025 312.969 -6.20596 313.019 -2.55874 311.391C0.447749 310.06 0.891329 309.567 1.08848 307.298C1.23634 305.671 1.08848 305.523 -0.242266 306.016Z" fill="#FF6A57"/>
<path d="M2.02576 308.282C2.17362 308.775 2.46934 309.021 2.6172 308.873C2.76506 308.725 2.6172 308.331 2.27219 307.986C1.77932 307.542 1.73004 307.591 2.02576 308.282Z" fill="#FF6A57"/>
<path d="M-15.0264 335.159C-15.0757 335.357 -15.2728 336.491 -15.47 337.674C-15.9136 339.844 -15.3714 342.162 -14.4842 342.162C-14.2378 342.162 -13.5971 343.099 -13.0056 344.233C-12.4142 345.416 -11.3792 347.043 -10.6399 347.931C-8.12626 351.038 -7.14052 352.418 -7.14052 352.911C-7.14052 353.602 2.47039 363.365 3.16041 363.365C3.50541 363.365 3.99828 363.612 4.34329 363.858C7.05406 366.176 19.3265 372.882 20.0658 372.439C20.3122 372.291 20.9036 372.488 21.3472 372.882C23.4665 374.707 25.2409 375.2 27.9023 374.707C29.2824 374.411 30.5145 374.214 30.6131 374.214C31.0567 374.214 32.141 371.206 31.7467 370.959C31.5003 370.811 31.3031 370.417 31.3031 370.022C31.3031 369.628 30.8103 368.79 30.2188 368.149C29.5781 367.507 28.7895 366.521 28.3952 365.979C28.0009 365.387 27.2616 364.795 26.7195 364.647C26.2266 364.549 25.9309 364.204 26.0787 363.908C26.2759 363.661 25.8816 363.069 25.2901 362.675C23.9101 361.689 18.6857 356.955 15.5314 353.848C14.2006 352.566 12.9685 351.531 12.722 351.531C12.4756 351.531 11.4899 350.742 10.4548 349.756C9.41982 348.769 7.59621 347.29 6.41333 346.55C5.18116 345.761 4.19543 344.923 4.19543 344.676C4.19543 344.43 3.60399 343.986 2.86469 343.74C2.0761 343.493 0.745356 342.605 -0.191092 341.866C-1.07825 341.077 -3.39473 339.597 -5.26763 338.611C-7.18981 337.576 -9.06271 336.491 -9.40771 336.195C-9.75272 335.899 -10.2949 335.801 -10.5413 335.998C-10.837 336.146 -11.527 336.047 -12.0692 335.751C-13.3999 335.012 -15.0264 334.716 -15.0264 335.159Z" fill="#0A9CFF"/>
<path d="M84.7766 376.679C83.6923 377.123 84.1359 377.419 86.6495 377.813C87.6845 377.961 87.9803 377.813 87.9803 377.123C87.9803 376.137 86.6002 375.939 84.7766 376.679Z" fill="#0A9CFF"/>
<path d="M79.7498 384.616C80.0455 392.062 80.3413 392.851 82.9042 393.147C83.6928 393.246 84.2842 393.394 84.2842 393.443C84.2842 393.492 84.6292 393.591 85.0235 393.69C85.4178 393.788 86.5021 394.084 87.3893 394.38L88.9664 394.873V390.041C88.9664 383.679 88.5229 380.671 87.5371 380.178C87.0935 379.932 85.1221 379.291 83.1013 378.699L79.4541 377.713L79.7498 384.616Z" fill="#0A9CFF"/>
</g>
<defs>
<filter id="filter0_f_2973_1531" x="-59.8818" y="-5.92383" width="77.3848" height="42.6445" filterUnits="userSpaceOnUse" color-interpolation-filters="sRGB">
<feFlood flood-opacity="0" result="BackgroundImageFix"/>
<feBlend mode="normal" in="SourceGraphic" in2="BackgroundImageFix" result="shape"/>
<feGaussianBlur stdDeviation="1.5" result="effect1_foregroundBlur_2973_1531"/>
</filter>
<filter id="filter1_f_2973_1531" x="478.718" y="2.50977" width="19.8301" height="32.9297" filterUnits="userSpaceOnUse" color-interpolation-filters="sRGB">
<feFlood flood-opacity="0" result="BackgroundImageFix"/>
<feBlend mode="normal" in="SourceGraphic" in2="BackgroundImageFix" result="shape"/>
<feGaussianBlur stdDeviation="2" result="effect1_foregroundBlur_2973_1531"/>
</filter>
<filter id="filter2_f_2973_1531" x="12.7754" y="14.791" width="10.6826" height="19.7852" filterUnits="userSpaceOnUse" color-interpolation-filters="sRGB">
<feFlood flood-opacity="0" result="BackgroundImageFix"/>
<feBlend mode="normal" in="SourceGraphic" in2="BackgroundImageFix" result="shape"/>
<feGaussianBlur stdDeviation="1.5" result="effect1_foregroundBlur_2973_1531"/>
</filter>
<filter id="filter3_f_2973_1531" x="-2.65723" y="23.6582" width="10.0986" height="10.8418" filterUnits="userSpaceOnUse" color-interpolation-filters="sRGB">
<feFlood flood-opacity="0" result="BackgroundImageFix"/>
<feBlend mode="normal" in="SourceGraphic" in2="BackgroundImageFix" result="shape"/>
<feGaussianBlur stdDeviation="1.5" result="effect1_foregroundBlur_2973_1531"/>
</filter>
<filter id="filter4_f_2973_1531" x="7.09375" y="186.814" width="16.2852" height="27.3887" filterUnits="userSpaceOnUse" color-interpolation-filters="sRGB">
<feFlood flood-opacity="0" result="BackgroundImageFix"/>
<feBlend mode="normal" in="SourceGraphic" in2="BackgroundImageFix" result="shape"/>
<feGaussianBlur stdDeviation="2" result="effect1_foregroundBlur_2973_1531"/>
</filter>
<filter id="filter5_f_2973_1531" x="1.74902" y="189.08" width="12.248" height="22.9531" filterUnits="userSpaceOnUse" color-interpolation-filters="sRGB">
<feFlood flood-opacity="0" result="BackgroundImageFix"/>
<feBlend mode="normal" in="SourceGraphic" in2="BackgroundImageFix" result="shape"/>
<feGaussianBlur stdDeviation="2" result="effect1_foregroundBlur_2973_1531"/>
</filter>
<filter id="filter6_f_2973_1531" x="37.1494" y="191.414" width="15.4033" height="11.6953" filterUnits="userSpaceOnUse" color-interpolation-filters="sRGB">
<feFlood flood-opacity="0" result="BackgroundImageFix"/>
<feBlend mode="normal" in="SourceGraphic" in2="BackgroundImageFix" result="shape"/>
<feGaussianBlur stdDeviation="2" result="effect1_foregroundBlur_2973_1531"/>
</filter>
<filter id="filter7_f_2973_1531" x="783.853" y="198.609" width="21.8008" height="20.6699" filterUnits="userSpaceOnUse" color-interpolation-filters="sRGB">
<feFlood flood-opacity="0" result="BackgroundImageFix"/>
<feBlend mode="normal" in="SourceGraphic" in2="BackgroundImageFix" result="shape"/>
<feGaussianBlur stdDeviation="2" result="effect1_foregroundBlur_2973_1531"/>
</filter>
<filter id="filter8_f_2973_1531" x="16.5215" y="199.643" width="11.3613" height="10.8477" filterUnits="userSpaceOnUse" color-interpolation-filters="sRGB">
<feFlood flood-opacity="0" result="BackgroundImageFix"/>
<feBlend mode="normal" in="SourceGraphic" in2="BackgroundImageFix" result="shape"/>
<feGaussianBlur stdDeviation="2" result="effect1_foregroundBlur_2973_1531"/>
</filter>
<filter id="filter9_f_2973_1531" x="794.642" y="205.398" width="31.2197" height="32.127" filterUnits="userSpaceOnUse" color-interpolation-filters="sRGB">
<feFlood flood-opacity="0" result="BackgroundImageFix"/>
<feBlend mode="normal" in="SourceGraphic" in2="BackgroundImageFix" result="shape"/>
<feGaussianBlur stdDeviation="2" result="effect1_foregroundBlur_2973_1531"/>
</filter>
<filter id="filter10_f_2973_1531" x="20.8867" y="209.754" width="9.41113" height="10.4805" filterUnits="userSpaceOnUse" color-interpolation-filters="sRGB">
<feFlood flood-opacity="0" result="BackgroundImageFix"/>
<feBlend mode="normal" in="SourceGraphic" in2="BackgroundImageFix" result="shape"/>
<feGaussianBlur stdDeviation="2" result="effect1_foregroundBlur_2973_1531"/>
</filter>
<filter id="filter11_f_2973_1531" x="19.6621" y="212.467" width="16.0342" height="14.5742" filterUnits="userSpaceOnUse" color-interpolation-filters="sRGB">
<feFlood flood-opacity="0" result="BackgroundImageFix"/>
<feBlend mode="normal" in="SourceGraphic" in2="BackgroundImageFix" result="shape"/>
<feGaussianBlur stdDeviation="2" result="effect1_foregroundBlur_2973_1531"/>
</filter>
<filter id="filter12_f_2973_1531" x="25.5928" y="216.344" width="12.1377" height="11.877" filterUnits="userSpaceOnUse" color-interpolation-filters="sRGB">
<feFlood flood-opacity="0" result="BackgroundImageFix"/>
<feBlend mode="normal" in="SourceGraphic" in2="BackgroundImageFix" result="shape"/>
<feGaussianBlur stdDeviation="2" result="effect1_foregroundBlur_2973_1531"/>
</filter>
<clipPath id="clip0_2973_1531">
<rect width="872" height="378" fill="white"/>
</clipPath>
</defs>
</svg>
