<svg width="46" height="24" viewBox="0 0 46 24" fill="none" xmlns="http://www.w3.org/2000/svg">
<path d="M46 20C46 22.2091 44.2091 24 42 24H4C1.79086 24 0 22.2091 0 20V4C0 1.79086 1.79086 0 4 0H42C44.2091 0 46 1.79086 46 4V20Z" fill="white"/>
<path d="M12.6219 9.42697C12.9551 9.31917 13.3116 9.26124 13.6822 9.26124C15.2989 9.26124 16.648 10.3714 16.9578 11.8477L19.2495 11.3952C18.7237 8.888 16.4312 7.00007 13.6822 7.00007C13.052 7.00007 12.4469 7.09917 11.8809 7.28228L12.6219 9.42697Z" fill="#FBC707"/>
<path d="M9.91758 16.6074L11.4673 14.9134C10.7753 14.3206 10.3394 13.456 10.3394 12.4927C10.3394 11.5298 10.7753 10.6656 11.4665 10.0734L9.9163 8.37915C8.74105 9.38549 8 10.8555 8 12.4927C8 14.1307 8.74191 15.6011 9.91758 16.6074Z" fill="#38A7E4"/>
<path d="M16.9562 13.1407C16.6466 14.6153 15.2982 15.7238 13.6819 15.7238C13.3109 15.7238 12.9539 15.6659 12.6208 15.5575L11.8784 17.7026C12.4449 17.8859 13.0513 17.9844 13.6819 17.9844C16.4283 17.9844 18.7204 16.1004 19.2483 13.5944L16.9562 13.1407Z" fill="#EF3120"/>
<path d="M25.8328 14.3164C25.832 14.3174 25.8316 14.3178 25.8311 14.3188L25.7656 14.2758C25.578 14.5706 25.2857 14.809 24.9159 14.9635C24.2125 15.2594 23.5609 15.1835 23.0931 14.7866L23.0501 14.8495C23.0497 14.8491 23.0497 14.8485 23.0488 14.8485L22.2506 16.0028C22.4488 16.1356 22.6615 16.2488 22.8847 16.3388C23.7665 16.6926 24.6685 16.676 25.557 16.3026C26.1994 16.0338 26.7038 15.6229 27.0487 15.1024L25.8328 14.3164ZM23.3413 11.4688C22.5996 11.7773 22.2164 12.4506 22.2953 13.2405L25.4404 11.9315C24.9001 11.3166 24.1958 11.1132 23.3413 11.4688ZM21.2534 14.9848C21.1781 14.8673 21.076 14.6788 21.0146 14.5406C20.6519 13.7261 20.6343 12.8832 20.9408 12.074C21.2776 11.1862 21.9217 10.507 22.7529 10.1611C23.7991 9.72575 24.9555 9.81202 25.9578 10.3866C26.594 10.7395 27.0453 11.2847 27.3881 12.0556C27.432 12.1543 27.4699 12.2602 27.5075 12.3496L21.2534 14.9848Z" fill="black"/>
<path d="M29.6938 8.4614V14.8789L30.7257 15.283L30.1393 16.6055L29.0005 16.1478C28.7445 16.0404 28.5708 15.8766 28.4387 15.6916C28.3133 15.5031 28.2188 15.2445 28.2188 14.8965V8.4614H29.6938Z" fill="black"/>
<path d="M32.3666 13.2428C32.3675 12.6966 32.6174 12.2065 33.012 11.8734L31.9532 10.7323C31.2352 11.3462 30.7835 12.2423 30.7822 13.2414C30.7809 14.2415 31.2323 15.1386 31.9504 15.7539L33.0073 14.6112C32.6149 14.2773 32.3666 13.788 32.3666 13.2428Z" fill="black"/>
<path d="M34.2481 15.0646C34.0398 15.0641 33.8393 15.0306 33.6517 14.9702L33.146 16.4243C33.4916 16.5364 33.8622 16.5972 34.2468 16.5977C35.9228 16.5991 37.3229 15.4492 37.6469 13.9204L36.0929 13.614C35.9165 14.4424 35.1571 15.0654 34.2481 15.0646Z" fill="black"/>
<path d="M34.2525 9.89171C33.868 9.8913 33.4986 9.95171 33.1528 10.0628L33.6544 11.5177C33.8421 11.4579 34.0428 11.4244 34.2513 11.4244C35.1624 11.4254 35.9219 12.0519 36.0939 12.8828L37.6484 12.5776C37.3291 11.047 35.9307 9.89274 34.2525 9.89171Z" fill="black"/>
</svg>
