<svg width="149" height="121" viewBox="0 0 149 121" fill="none" xmlns="http://www.w3.org/2000/svg">
<rect x="3.34082" y="69.5358" width="132.391" height="55.1087" rx="4.07609" transform="rotate(-30 3.34082 69.5358)" stroke="#00A843" stroke-width="4.8913"/>
<path d="M48.6938 73.3129L52.3687 79.6779C52.2927 80.1238 52.0956 80.6739 51.7772 81.3284C51.4547 81.9755 50.9537 82.6619 50.2744 83.3874C49.5951 84.113 48.6708 84.8134 47.5015 85.4885C46.4646 86.0871 45.4219 86.4636 44.3735 86.6178C43.3209 86.7647 42.2946 86.6855 41.2947 86.3803C40.3022 86.0709 39.3645 85.5337 38.4816 84.7687C37.5944 83.9963 36.7942 82.9924 36.0809 81.7569L35.5013 80.7531C34.788 79.5176 34.3113 78.3269 34.0713 77.1809C33.8387 76.0307 33.8292 74.9527 34.0427 73.9469C34.2563 72.9411 34.6751 72.0276 35.2992 71.2064C35.9233 70.3852 36.7391 69.6838 37.7466 69.1021C39.1439 68.2954 40.4228 67.861 41.5833 67.7989C42.7395 67.7295 43.7843 67.9598 44.7178 68.4896C45.6544 69.0079 46.475 69.75 47.1798 70.7159L43.9697 72.5692C43.5746 72.0717 43.1463 71.6865 42.6848 71.4137C42.2233 71.1408 41.7134 71.0135 41.1553 71.0318C40.6045 71.0459 39.9944 71.2461 39.3252 71.6324C38.7736 71.9509 38.3467 72.3494 38.0445 72.8278C37.7453 73.2947 37.5739 73.83 37.5302 74.4338C37.4866 75.0375 37.5722 75.7039 37.7872 76.4328C38.0021 77.1618 38.3538 77.9492 38.842 78.7949L39.4343 79.8208C39.9184 80.6592 40.4281 81.3552 40.9635 81.909C41.4947 82.4554 42.0458 82.8579 42.6168 83.1166C43.1909 83.3637 43.777 83.4617 44.375 83.4105C44.9731 83.3594 45.5846 83.1534 46.2097 82.7925C46.7319 82.4911 47.1403 82.1964 47.435 81.9086C47.737 81.6166 47.9586 81.3465 48.0997 81.0983C48.2439 80.8386 48.3409 80.6159 48.3906 80.4303L46.7474 77.5842L43.7249 79.3293L42.3619 76.9686L48.6938 73.3129ZM64.5504 64.1434L64.9898 64.9045C65.6947 66.1253 66.1618 67.3166 66.3914 68.4784C66.6209 69.6403 66.6316 70.7372 66.4234 71.7693C66.211 72.7941 65.7896 73.7286 65.1593 74.573C64.5363 75.4132 63.7174 76.1262 62.7025 76.7121C61.695 77.2938 60.668 77.6465 59.6216 77.7702C58.5825 77.8896 57.5625 77.7873 56.5615 77.4631C55.5562 77.1316 54.6042 76.5781 53.7055 75.8027C52.8141 75.023 52.0159 74.0227 51.3111 72.8019L50.8717 72.0408C50.1626 70.8126 49.6954 69.6213 49.4701 68.4669C49.2406 67.3051 49.2299 66.2081 49.4381 65.176C49.6536 64.1397 50.0729 63.2014 50.6958 62.3613C51.3262 61.5169 52.1451 60.8038 53.1526 60.2222C54.1675 59.6362 55.1945 59.2835 56.2335 59.1641C57.28 59.0404 58.3021 59.1465 59.3 59.4822C60.3053 59.8137 61.2536 60.3694 62.145 61.149C63.0395 61.9171 63.8413 62.9152 64.5504 64.1434ZM61.6474 66.8343L61.1952 66.0511C60.7027 65.198 60.1924 64.4925 59.6643 63.9345C59.1362 63.3765 58.594 62.9639 58.0378 62.6967C57.4815 62.4295 56.9227 62.3109 56.3614 62.3408C55.7959 62.3633 55.2337 62.5359 54.6748 62.8586C54.1159 63.1813 53.6853 63.5819 53.383 64.0604C53.0838 64.5273 52.9109 65.0684 52.8641 65.6837C52.8247 66.2948 52.9146 66.9685 53.1338 67.7048C53.353 68.4412 53.7089 69.2359 54.2014 70.089L54.6536 70.8722C55.1419 71.7179 55.6522 72.4234 56.1845 72.9888C56.7126 73.5468 57.2569 73.9631 57.8174 74.2376C58.3737 74.5048 58.9346 74.6271 59.5001 74.6045C60.0656 74.582 60.6278 74.4094 61.1867 74.0867C61.7456 73.764 62.1762 73.3634 62.4785 72.8849C62.7808 72.4064 62.9516 71.8617 62.991 71.2506C63.0262 70.6321 62.9342 69.9548 62.715 69.2184C62.4915 68.4747 62.1357 67.68 61.6474 66.8343ZM77.7214 62.143C77.5558 61.8562 77.363 61.6242 77.1432 61.4472C76.9264 61.2586 76.6488 61.1345 76.3105 61.0749C75.9678 61.008 75.5354 60.9978 75.0132 61.0443C74.491 61.0909 73.8431 61.2002 73.0697 61.3721C72.2058 61.5572 71.3617 61.6915 70.5373 61.7752C69.7203 61.8547 68.9492 61.8439 68.2241 61.7429C67.5021 61.6302 66.847 61.3956 66.2587 61.0391C65.6778 60.6783 65.1878 60.1522 64.7887 59.4609C64.4023 58.7917 64.1991 58.1001 64.179 57.386C64.1548 56.6646 64.2949 55.9562 64.5993 55.2607C64.8995 54.5579 65.3484 53.8918 65.946 53.2624C66.5509 52.6288 67.2873 52.0615 68.1551 51.5605C69.3391 50.8769 70.4955 50.4936 71.6243 50.4106C72.753 50.3277 73.7745 50.5174 74.6887 50.98C75.6103 51.4383 76.3471 52.1454 76.899 53.1015L73.6117 54.9994C73.34 54.5287 73.0029 54.1742 72.6006 53.9359C72.2013 53.6859 71.7437 53.5726 71.2277 53.596C70.719 53.6151 70.1668 53.7966 69.5711 54.1405C68.9975 54.4717 68.5705 54.8359 68.2899 55.2332C68.0052 55.6232 67.8521 56.0204 67.8307 56.425C67.8051 56.8222 67.8963 57.201 68.1044 57.5613C68.2615 57.8334 68.4699 58.0416 68.7297 58.1858C68.9968 58.3257 69.3216 58.4127 69.7041 58.4469C70.0866 58.481 70.5252 58.468 71.02 58.4078C71.5148 58.3477 72.0699 58.2478 72.6855 58.1081C73.7135 57.8676 74.654 57.7217 75.5069 57.6705C76.3672 57.6151 77.1405 57.6638 77.8269 57.8166C78.5133 57.9695 79.1212 58.2411 79.6506 58.6317C80.1801 59.0222 80.6359 59.5484 81.018 60.2103C81.4214 60.9089 81.6462 61.6125 81.6925 62.3212C81.7389 63.0299 81.6151 63.724 81.3211 64.4036C81.0271 65.0833 80.5807 65.7283 79.982 66.3387C79.3833 66.9491 78.6427 67.5091 77.7602 68.0186C76.9659 68.4772 76.1233 68.8264 75.2322 69.0663C74.3369 69.2989 73.4498 69.3844 72.5711 69.323C71.6998 69.2574 70.8855 69.0019 70.1283 68.5566C69.3711 68.1113 68.7314 67.4363 68.2091 66.5318L71.5295 64.6147C71.8182 65.1148 72.1396 65.4931 72.4936 65.7496C72.8476 66.006 73.2259 66.1602 73.6285 66.2122C74.0384 66.2599 74.4659 66.219 74.9108 66.0895C75.3632 65.9559 75.8247 65.7532 76.2953 65.4814C76.8689 65.1502 77.2929 64.7976 77.5672 64.4235C77.8489 64.0452 77.9951 63.6617 78.006 63.2729C78.0243 62.88 77.9294 62.5033 77.7214 62.143ZM83.6159 42.9283L92.889 58.9898L89.5906 60.8941L80.3175 44.8326L83.6159 42.9283ZM88.5579 40.0751L90.0546 42.6674L76.9495 50.2337L75.4528 47.6413L88.5579 40.0751ZM109.005 46.2438L110.495 48.8251L101.946 53.761L100.455 51.1797L109.005 46.2438ZM93.7536 37.0753L103.027 53.1368L99.7173 55.0475L90.4442 38.986L93.7536 37.0753ZM103.884 39.9484L105.336 42.4635L97.9014 46.7561L96.4493 44.241L103.884 39.9484ZM101.211 32.77L102.707 35.3623L94.1692 40.2918L92.6725 37.6995L101.211 32.77ZM106.671 29.6174L115.944 45.6788L112.646 47.5831L103.373 31.5217L106.671 29.6174Z" fill="#00A843"/>
</svg>
