<svg width="230" height="208" viewBox="0 0 230 208" fill="none" xmlns="http://www.w3.org/2000/svg">
<g filter="url(#filter0_d_2961_1542)">
<circle cx="114.5" cy="93.5" r="84.5" fill="white"/>
<path d="M114.58 0.368938C108.775 2.43891 105.85 3.6089 105.985 3.87889C106.075 4.01389 105.715 4.19387 105.22 4.19387C103.375 4.32887 97.9302 6.57884 97.7952 7.29883C97.6152 8.15381 96.8052 8.19881 96.8052 7.29883C96.8052 6.75884 96.0852 6.62384 92.9353 6.62384C90.6403 6.62384 89.2004 6.80384 89.3803 7.02884C89.5153 7.29883 89.2453 7.70383 88.7503 7.92883C87.4904 8.60382 87.1304 8.55882 87.8054 7.74883C88.1204 7.34384 88.3004 6.98383 88.2104 6.89383C87.8504 6.53383 78.0855 7.43384 76.7806 7.92883C74.0806 9.00881 71.9206 10.9438 66.6107 17.0637C63.6408 20.4836 60.5358 23.7686 59.7708 24.3536C58.9608 24.9386 55.8109 26.7835 52.7059 28.4485C43.4361 33.4434 39.5661 36.6834 40.3761 38.7533C40.5111 39.1583 40.4211 39.4733 40.1511 39.4733C39.3861 39.4733 38.8911 41.0933 37.1362 48.6532C35.2462 56.8431 34.7062 58.103 30.2063 64.7629C28.2263 67.6429 25.9763 71.2878 25.1664 72.8628C23.6364 75.7428 23.5014 77.1377 24.0414 83.7976L24.1314 85.1026L17.1565 86.4526C13.3315 87.2176 10.0916 87.8476 10.0016 87.8926C9.91159 87.9826 13.6465 92.8425 18.2815 98.6924L26.7413 109.357L26.6513 112.237C26.6063 114.217 25.5714 118.537 23.2314 126.637C21.3864 132.982 19.9464 138.247 20.0364 138.337C20.2614 138.562 33.5362 135.772 33.7612 135.412C34.2562 134.782 38.0812 135.007 38.6661 135.727C40.5561 138.022 42.1761 141.172 44.4261 146.887C45.821 150.442 47.171 153.322 47.441 153.322C47.711 153.322 47.801 153.457 47.621 153.592C47.171 154.042 48.926 157.057 50.546 158.541C52.4809 160.386 55.2709 161.781 61.9308 164.121C68.2757 166.371 70.1657 167.271 73.0006 169.341C74.1706 170.196 75.3406 170.871 75.6106 170.871C75.8806 170.871 76.0606 171.051 75.9706 171.276C75.8806 171.636 79.7955 175.371 80.2455 175.371C80.3805 175.371 81.2805 176.136 82.3155 177.081C83.3504 178.026 85.2404 179.421 86.5454 180.096C88.6604 181.266 89.3353 181.401 92.7553 181.356C94.8703 181.356 98.8302 180.996 101.53 180.591C110.125 179.331 111.385 179.331 117.55 180.816C127.09 183.111 130.78 183.606 133.345 183.021C135.505 182.481 140.365 179.556 146.304 175.191C150.624 171.996 152.784 171.051 160.164 169.071C174.069 165.381 173.889 165.516 180.324 152.872C183.789 146.077 183.969 145.807 188.379 141.622C197.154 133.252 198.999 131.272 199.989 129.157C200.844 127.222 200.979 125.962 201.204 115.972C201.519 104.362 201.789 102.652 203.544 102.247C204.129 102.157 207.818 101.437 211.778 100.672C215.738 99.9074 219.338 99.1424 219.743 98.9624C220.418 98.6924 219.518 97.3874 214.703 91.2675C211.463 87.2176 208.853 84.2476 208.853 84.6526C208.853 85.0576 208.673 85.3726 208.448 85.3726C208.223 85.3726 208.133 85.0126 208.268 84.5626C208.358 84.1126 207.818 82.8077 206.918 81.5477C206.109 80.2877 205.299 78.9377 205.119 78.4877C204.939 77.9927 204.579 77.8127 204.309 77.9927C203.949 78.1727 203.904 78.1277 204.084 77.8127C204.264 77.5427 204.084 76.7328 203.769 76.0578C203.139 74.8878 203.364 73.8978 206.874 61.748C208.898 54.5931 210.518 48.6532 210.428 48.5632C210.383 48.4732 208.223 48.8332 205.659 49.3732C203.094 49.8682 200.394 50.4082 199.629 50.4982C198.909 50.6332 197.739 50.8132 197.109 50.9481C195.984 51.2181 195.894 51.0832 195.399 48.4282C194.769 45.2332 194.049 43.4333 193.509 43.7933C193.284 43.9283 193.239 43.7483 193.374 43.3883C193.734 42.4433 189.909 39.1583 183.204 34.6584C176.409 30.1135 175.104 28.8535 171.099 23.0936C169.524 20.8886 168.084 18.8636 167.859 18.5937C167.634 18.3237 166.689 17.1537 165.744 15.9387C163.584 13.2837 161.109 11.3938 160.659 12.0688C160.479 12.4288 160.254 12.3388 159.939 11.8888C159.489 10.9888 151.794 9.59379 149.319 9.90879C148.374 10.0438 147.744 9.95379 147.924 9.72879C148.059 9.5038 147.384 9.3238 146.439 9.3238C145.494 9.3238 143.335 9.00881 141.58 8.60382C139.87 8.19882 138.16 7.88383 137.89 7.83883C137.575 7.83883 137.305 7.70383 137.305 7.52383C137.305 7.38883 134.02 5.63386 130.015 3.65389C123.04 0.27894 122.5 0.0989476 119.305 0.008949C117.46 -0.0360503 115.345 0.0989421 114.58 0.368938ZM122.005 5.45385C122.005 5.58885 121.825 5.81385 121.555 5.94885C121.33 6.08385 121.105 5.99385 121.105 5.76885C121.105 5.49886 121.33 5.27386 121.555 5.27386C121.825 5.27386 122.005 5.36385 122.005 5.45385ZM131.005 5.45385C131.005 5.58885 130.825 5.81385 130.555 5.94885C130.33 6.08385 130.105 5.99385 130.105 5.76885C130.105 5.49886 130.33 5.27386 130.555 5.27386C130.825 5.27386 131.005 5.36385 131.005 5.45385ZM102.115 11.3488C102.385 11.9338 102.97 11.9788 105.04 11.7538C106.435 11.5738 107.605 11.2588 107.605 11.0338C107.605 10.8088 107.785 10.7188 108.055 10.8988C108.28 11.0338 111.745 11.1688 115.705 11.2138C119.71 11.2138 123.805 11.3938 124.84 11.5738C125.875 11.7988 128.665 12.2938 131.005 12.7438C143.38 14.9487 156.564 21.1136 167.229 29.6185C168.894 30.9685 170.469 32.0034 170.694 31.9134C170.919 31.8684 171.009 31.9584 170.874 32.1834C170.739 32.4084 171.774 33.6684 173.124 35.0184C176.859 38.6183 180.954 43.6583 184.059 48.4282C186.984 52.8831 187.029 53.4231 184.509 53.4231C183.564 53.4231 182.979 52.8831 181.629 50.8132C174.159 39.5183 162.639 28.9885 151.569 23.4536C149.274 22.2836 148.329 22.0136 148.104 22.3736C147.834 22.7786 147.654 22.6886 147.474 22.0586C147.024 20.7086 138.97 17.8287 130.6 16.0287C124.975 14.8587 111.655 14.3637 105.67 15.1287C93.1153 16.7937 81.8655 21.0236 71.1556 28.0885C63.9557 32.8584 54.7309 42.1283 49.871 49.3732C44.0211 58.238 40.1061 67.5079 38.0812 77.4527C37.0462 82.5377 36.7762 82.9877 34.6162 83.0777C33.5362 83.1227 33.5812 82.2227 34.8862 75.9228C38.6211 58.238 49.061 41.1833 63.0558 29.8885C64.9007 28.4035 66.6557 26.9185 66.8807 26.6485C67.1507 26.3335 67.5557 26.0635 67.7807 25.9735C68.3207 25.7935 71.7406 23.6336 72.0556 23.2286C72.1906 23.0936 75.2056 21.5186 78.8055 19.7636C85.5104 16.4787 93.3853 13.7337 98.6952 12.8337C101.575 12.3388 101.71 12.2488 100.99 11.4838C100.315 10.7638 100.315 10.6738 100.99 10.6738C101.395 10.6738 101.89 10.9888 102.115 11.3488ZM148.554 14.0937C148.554 16.1637 147.879 15.7137 147.744 13.5987C147.654 12.5638 147.789 12.0688 148.104 12.2488C148.329 12.3838 148.554 13.2387 148.554 14.0937ZM123.58 16.0737C123.715 16.2987 123.625 16.5237 123.4 16.5237C123.13 16.5237 122.905 16.2987 122.905 16.0737C122.905 15.8037 122.995 15.6237 123.085 15.6237C123.22 15.6237 123.445 15.8037 123.58 16.0737ZM150.804 17.8737C150.804 18.0987 150.714 18.3237 150.624 18.3237C150.489 18.3237 150.264 18.0987 150.129 17.8737C149.994 17.6037 150.084 17.4237 150.309 17.4237C150.579 17.4237 150.804 17.6037 150.804 17.8737ZM72.5056 18.5037C72.5056 18.8637 72.3256 19.3136 72.0556 19.4486C71.8306 19.5836 71.6056 19.3136 71.6056 18.8187C71.6056 18.2787 71.8306 17.8737 72.0556 17.8737C72.3256 17.8737 72.5056 18.1437 72.5056 18.5037ZM129.205 18.5037C129.205 18.6387 129.025 18.8637 128.755 18.9987C128.53 19.1336 128.305 19.0437 128.305 18.8187C128.305 18.5487 128.53 18.3237 128.755 18.3237C129.025 18.3237 129.205 18.4137 129.205 18.5037ZM113.725 21.1586C114.085 21.0236 114.355 21.1136 114.355 21.3836C114.355 22.1036 112.87 22.4636 112.465 21.8336C112.015 21.1136 112.015 19.9436 112.465 19.4936C112.645 19.3136 112.825 19.6736 112.915 20.2586C113.005 21.0686 113.275 21.3386 113.725 21.1586ZM103.78 21.9236C103.915 22.1486 103.825 22.3736 103.6 22.3736C103.33 22.3736 103.105 22.1486 103.105 21.9236C103.105 21.6536 103.195 21.4736 103.285 21.4736C103.42 21.4736 103.645 21.6536 103.78 21.9236ZM105.085 24.8486C105.265 25.4786 105.67 25.9735 106.03 25.9735C106.39 25.9735 106.705 26.2885 106.705 26.6485C106.705 27.0535 107.245 27.5485 107.965 27.8185L109.18 28.3135L108.1 29.1685C107.29 29.8435 107.155 30.1585 107.56 30.6535C107.965 31.1485 107.875 31.3285 107.2 31.5085C106.57 31.6434 106.39 32.0035 106.615 32.9484C106.84 34.1634 106.795 34.2084 105.4 33.9384C104.32 33.7134 104.005 33.8034 104.005 34.2984C104.005 34.8834 103.87 34.8834 103.15 34.4334C102.43 33.9834 102.115 34.0284 101.395 34.6584C100.27 35.6934 99.9552 35.6034 99.9552 34.2984C99.9552 33.4884 99.7302 33.1734 99.0552 33.1734C98.4702 33.1734 98.2452 32.9484 98.4252 32.4984C98.6052 32.0934 98.2902 31.6435 97.5252 31.3285C96.1303 30.6535 96.0853 30.4285 97.3002 29.6635C98.0202 29.2135 98.1102 28.9435 97.7502 28.4935C97.3452 28.0435 97.4352 27.8185 97.9752 27.5935C98.5152 27.3685 98.6502 26.9635 98.4252 25.9735C98.1552 24.4436 98.1102 24.4436 99.7302 25.0736C100.63 25.4336 100.945 25.3886 101.17 24.8486C101.35 24.3086 101.53 24.2636 102.07 24.6686C102.565 25.1186 102.88 25.0736 103.465 24.4886C104.455 23.4536 104.77 23.5436 105.085 24.8486ZM138.205 24.1736C138.205 24.3986 138.025 24.6236 137.755 24.6236C137.53 24.6236 137.305 24.3986 137.305 24.1736C137.305 23.9036 137.53 23.7236 137.755 23.7236C138.025 23.7236 138.205 23.9036 138.205 24.1736ZM146.529 24.1736C146.664 24.3986 146.484 24.6236 146.079 24.6236C145.674 24.6236 145.494 24.3986 145.629 24.1736C145.764 23.9036 145.989 23.7236 146.079 23.7236C146.169 23.7236 146.394 23.9036 146.529 24.1736ZM85.1054 24.8486C85.1054 25.2086 84.9254 25.5236 84.6554 25.5236C84.4304 25.5236 84.2054 25.2086 84.2054 24.8486C84.2054 24.4886 84.4304 24.1736 84.6554 24.1736C84.9254 24.1736 85.1054 24.4886 85.1054 24.8486ZM138.565 27.4585C138.88 27.3235 139.105 27.6385 139.105 28.1785C139.105 28.8085 139.465 29.2135 140.23 29.3935C141.58 29.7535 141.625 30.0685 140.41 30.8335C139.69 31.3285 139.6 31.5535 140.005 32.0484C140.455 32.5884 140.41 32.7684 139.825 32.9934C139.375 33.1734 139.105 33.8034 139.105 34.5684C139.105 35.7834 139.015 35.8734 137.935 35.6034C137.17 35.4234 136.63 35.5134 136.36 35.9184C136.09 36.4134 135.865 36.4134 135.415 35.9634C135.01 35.5584 134.65 35.6484 133.84 36.4134C133.075 37.1334 132.805 37.2234 132.625 36.7284C132.04 34.7484 131.86 34.4784 131.455 34.7484C131.23 34.8834 131.005 34.6134 131.005 34.1184C131.005 33.4884 130.6 33.0834 129.88 32.9034C128.53 32.5434 128.44 32.0934 129.7 31.2385C130.285 30.8335 130.42 30.4735 130.15 30.2485C129.43 29.7985 129.565 29.1235 130.375 29.1235C130.915 29.1235 131.05 28.8085 130.915 27.7735C130.735 26.4685 130.735 26.4235 132.22 26.6935C133.165 26.8735 133.705 26.7835 133.705 26.4685C133.705 26.1535 134.11 26.0635 134.74 26.1985C135.415 26.3785 136 26.1985 136.405 25.7485C136.99 25.0286 137.08 25.1186 137.53 26.2885C137.755 27.0535 138.25 27.5485 138.565 27.4585ZM115.93 30.0235C116.065 30.2485 116.02 30.4735 115.75 30.4735C115.525 30.4735 115.165 30.2485 115.03 30.0235C114.895 29.7535 114.94 29.5735 115.21 29.5735C115.435 29.5735 115.795 29.7535 115.93 30.0235ZM95.4553 32.7684C95.4553 33.2634 95.3203 33.2634 94.3753 32.9034C93.3403 32.4984 93.4753 31.8684 94.5553 32.1384C95.0503 32.2734 95.4553 32.5434 95.4553 32.7684ZM124.705 33.4434C124.705 33.8034 124.48 33.9834 124.255 33.8484C123.985 33.6684 123.895 33.3534 124.03 33.1284C124.435 32.4984 124.705 32.6334 124.705 33.4434ZM120.205 34.7034C120.205 34.8384 120.025 35.0634 119.755 35.1984C119.53 35.3334 119.305 35.2434 119.305 35.0184C119.305 34.7484 119.53 34.5234 119.755 34.5234C120.025 34.5234 120.205 34.6134 120.205 34.7034ZM51.3559 35.9184C51.3559 36.1884 51.176 36.2334 50.906 36.0984C50.681 35.9634 50.456 35.6034 50.456 35.3784C50.456 35.1084 50.681 35.0634 50.906 35.1984C51.176 35.3334 51.3559 35.6934 51.3559 35.9184ZM121.555 36.3684C121.555 36.6384 121.375 36.6834 121.105 36.5484C120.88 36.4134 120.655 36.0534 120.655 35.8284C120.655 35.5584 120.88 35.5134 121.105 35.6484C121.375 35.7834 121.555 36.1434 121.555 36.3684ZM143.875 37.5384C143.56 37.8534 142.705 37.2234 142.705 36.6834C142.705 36.4134 142.975 36.4134 143.38 36.7734C143.785 37.0884 143.965 37.4484 143.875 37.5384ZM49.421 37.7634C49.286 38.1234 49.151 37.9884 49.151 37.4934C49.106 36.9984 49.241 36.7284 49.376 36.9084C49.511 37.0434 49.556 37.4484 49.421 37.7634ZM77.6355 37.8984C77.8155 38.5283 78.2205 39.0233 78.5805 39.0233C78.9405 39.0233 79.2555 39.3383 79.2555 39.6983C79.2555 40.0583 79.7505 40.4633 80.3805 40.6433C81.7305 41.0033 81.7755 41.3183 80.5605 42.0833C79.9305 42.4883 79.7505 42.9383 79.9305 43.5233C80.1105 44.0633 80.0205 44.4233 79.7055 44.4233C79.3455 44.4233 79.2105 44.9182 79.3455 45.8182C79.5705 47.1682 79.5255 47.1682 78.1305 46.9432C77.0056 46.7182 76.6006 46.8082 76.3756 47.4382C76.1056 48.0682 75.9706 48.1132 75.6556 47.6182C75.3406 47.0782 75.1156 47.0782 74.1256 47.7082C73.0006 48.4732 72.9556 48.4732 72.6856 47.3482C72.5056 46.6282 72.1006 46.2232 71.5156 46.2232C70.8856 46.2232 70.7056 45.9982 70.8856 45.5482C71.0656 45.0532 70.7506 44.6933 69.9407 44.3783L68.7707 43.9283L69.7606 42.8933C70.4356 42.2183 70.6156 41.7233 70.3007 41.4983C69.5807 41.0933 69.7156 40.3733 70.5256 40.3733C71.0656 40.3733 71.1556 40.0583 70.9306 39.0233C70.6156 37.5384 70.6156 37.4934 72.2356 38.1233C73.1356 38.4383 73.4506 38.3934 73.8556 37.7634C74.2156 37.0884 74.3506 37.0884 74.7106 37.6734C75.1156 38.2584 75.2506 38.2583 75.9706 37.5384C77.0055 36.5034 77.3205 36.5484 77.6355 37.8984ZM117.955 37.2234C117.955 37.4484 117.865 37.6734 117.775 37.6734C117.64 37.6734 117.415 37.4484 117.28 37.2234C117.145 36.9534 117.235 36.7734 117.46 36.7734C117.73 36.7734 117.955 36.9534 117.955 37.2234ZM114.805 39.9233C114.805 40.1483 114.625 40.3733 114.355 40.3733C114.13 40.3733 113.905 40.1483 113.905 39.9233C113.905 39.6533 114.13 39.4733 114.355 39.4733C114.625 39.4733 114.805 39.6533 114.805 39.9233ZM162.504 41.3183C162.504 41.8583 162.819 42.1733 163.359 42.1733C163.989 42.1733 164.169 42.3983 163.989 43.0733C163.854 43.6583 163.989 43.9733 164.349 43.9733C164.709 43.9733 165.294 44.1983 165.654 44.4233C166.239 44.7833 166.149 44.9632 165.294 45.5932C164.484 46.1332 164.349 46.4482 164.799 46.9432C165.204 47.4382 165.159 47.6182 164.529 47.8432C163.944 48.0682 163.854 48.4732 164.034 49.4182C164.304 50.9032 164.349 50.9031 162.729 50.2732C161.739 49.9132 161.559 49.9132 161.739 50.4532C162.009 51.1282 161.334 51.1732 160.344 50.5432C159.984 50.3182 159.399 50.4982 158.859 50.9931C158.094 51.7131 157.869 51.7131 157.554 51.1732C157.284 50.8132 157.104 50.2282 157.104 49.8682C157.104 49.5082 156.834 49.3732 156.384 49.5532C155.799 49.7782 155.709 49.6432 155.889 48.9682C156.069 48.2932 155.754 47.9782 154.674 47.5732L153.279 47.0782L154.314 46.2232C154.899 45.7282 155.214 45.1432 155.034 44.6932C154.899 44.2883 154.989 43.9733 155.259 43.9733C155.529 43.9733 155.754 43.3433 155.754 42.5783C155.754 41.2733 155.844 41.2283 157.104 41.4983C157.959 41.6783 158.454 41.6333 158.454 41.3183C158.454 41.0033 158.859 40.9133 159.489 41.0483C160.164 41.2283 160.749 41.0933 161.109 40.6433C161.829 39.7883 162.504 40.1033 162.504 41.3183ZM116.83 40.8233C116.965 41.0483 116.785 41.2733 116.425 41.2733C116.02 41.2733 115.705 41.0483 115.705 40.8233C115.705 40.5533 115.885 40.3733 116.11 40.3733C116.38 40.3733 116.695 40.5533 116.83 40.8233ZM109.99 42.2183C109.81 42.8033 109.585 42.9833 109.315 42.7133C108.82 42.2183 109.18 41.2733 109.855 41.2733C110.035 41.2733 110.125 41.6783 109.99 42.2183ZM86.3204 42.7133C86.1854 43.0733 86.0504 42.9383 86.0504 42.4433C86.0054 41.9483 86.1404 41.6783 86.2754 41.8583C86.4104 41.9933 86.4554 42.3983 86.3204 42.7133ZM122.68 43.7033C131.68 44.6933 143.56 50.6332 150.939 57.788C151.614 58.463 152.109 59.183 152.019 59.453C151.884 59.858 138.43 62.828 133.48 63.593C132.76 63.683 119.98 66.2029 105.13 69.1729C90.2803 72.1428 77.5905 74.6628 76.9605 74.7528C76.3306 74.8878 74.0806 75.2928 72.0556 75.6528C69.9857 76.0578 68.2307 76.2828 68.0957 76.1478C67.6907 75.7878 71.5606 68.2729 73.9456 64.7629C76.9155 60.443 82.1805 55.1781 86.0954 52.5231C88.1204 51.1732 89.1553 50.1832 89.1553 49.5982C89.1553 48.9232 89.2903 48.8332 89.5603 49.2832C89.8303 49.7782 90.5953 49.5532 93.0253 48.3382C96.1302 46.7632 102.655 44.4233 103.825 44.4233C104.185 44.4233 104.59 44.1083 104.725 43.7483C104.95 43.2533 105.175 43.1633 105.58 43.5233C105.895 43.7933 106.705 43.8833 107.29 43.7033C109.135 43.2533 118.54 42.8033 119.305 43.1183C119.665 43.2533 121.195 43.5233 122.68 43.7033ZM67.5557 44.4233C67.5557 44.6483 67.4657 44.8732 67.3757 44.8732C67.2407 44.8732 67.0157 44.6483 66.8807 44.4233C66.7457 44.1533 66.8357 43.9733 67.0607 43.9733C67.3307 43.9733 67.5557 44.1533 67.5557 44.4233ZM135.055 45.3232C135.055 45.5482 134.83 45.7732 134.56 45.7732C134.335 45.7732 134.245 45.5482 134.38 45.3232C134.515 45.0532 134.74 44.8732 134.875 44.8732C134.965 44.8732 135.055 45.0532 135.055 45.3232ZM53.0209 49.0132C52.8859 49.3282 52.7959 49.1032 52.7959 48.4732C52.7959 47.8432 52.8859 47.6182 53.0209 47.8882C53.1109 48.2032 53.1109 48.7432 53.0209 49.0132ZM151.704 52.9731C151.434 53.5131 151.074 53.8281 150.939 53.7381C150.849 53.6031 150.984 53.0631 151.254 52.5231C151.524 51.9831 151.884 51.6681 152.019 51.7581C152.109 51.8931 151.974 52.4331 151.704 52.9731ZM205.704 52.2531C205.704 52.8831 204.399 53.6031 203.994 53.1981C203.859 53.0631 203.994 52.9731 204.264 52.9731C204.579 52.9731 204.804 52.6581 204.804 52.2981C204.804 51.9381 205.029 51.6231 205.254 51.6231C205.524 51.6231 205.704 51.8931 205.704 52.2531ZM204.534 57.698C204.669 58.058 204.579 58.373 204.354 58.373C204.084 58.373 203.904 58.058 203.904 57.698C203.904 57.338 203.994 57.0231 204.084 57.0231C204.174 57.0231 204.354 57.338 204.534 57.698ZM58.5558 61.118C58.5558 61.658 58.9158 62.153 59.4558 62.288C59.9508 62.423 60.3558 62.783 60.3558 63.143C60.3558 63.458 60.8958 63.908 61.5258 64.043L62.6508 64.3129L61.7058 65.3479C61.1658 65.9329 60.8958 66.6079 61.0758 67.0579C61.2108 67.5079 61.1208 67.8229 60.8508 67.8229C60.5808 67.8229 60.3558 68.4529 60.3558 69.2179C60.3558 70.5228 60.2658 70.5678 59.0058 70.2979C57.9708 70.0729 57.5659 70.1629 57.3859 70.7028C57.1609 71.2878 56.9809 71.3328 56.4859 70.9278C55.9909 70.5228 55.6309 70.5678 54.9559 71.1978C54.0109 72.0528 54.1009 72.1428 53.3809 69.8479C53.2909 69.4879 52.8859 69.3079 52.4809 69.4429C52.0309 69.6229 51.8059 69.4429 51.8059 68.7679C51.8059 68.2279 51.5359 67.8229 51.1759 67.8229C50.006 67.8229 49.871 66.8779 50.906 66.1579C51.6259 65.6629 51.7609 65.3479 51.401 64.9879C50.726 64.3129 50.771 63.7729 51.5809 63.7729C52.0759 63.7729 52.1659 63.413 51.9859 62.423C51.7159 61.118 51.716 61.118 53.0659 61.478C54.1459 61.793 54.5059 61.748 54.6859 61.208C54.9109 60.713 55.1359 60.668 55.5409 60.983C55.9009 61.298 56.3509 61.253 56.9358 60.803C58.1508 59.948 58.5558 59.993 58.5558 61.118ZM162.504 61.523C162.504 61.748 162.279 61.973 162.009 61.973C161.784 61.973 161.694 61.748 161.829 61.523C161.964 61.253 162.189 61.073 162.324 61.073C162.414 61.073 162.504 61.253 162.504 61.523ZM129.655 66.6529C129.655 66.7879 129.475 67.0129 129.205 67.1479C128.98 67.2829 128.755 67.1929 128.755 66.9679C128.755 66.6979 128.98 66.4729 129.205 66.4729C129.475 66.4729 129.655 66.5629 129.655 66.6529ZM117.055 67.8229C117.055 68.0479 116.965 68.2729 116.875 68.2729C116.74 68.2729 116.515 68.0479 116.38 67.8229C116.245 67.5529 116.335 67.3729 116.56 67.3729C116.83 67.3729 117.055 67.5529 117.055 67.8229ZM33.8062 69.6229C33.8062 69.8479 33.5812 70.0729 33.3112 70.0729C33.0862 70.0729 32.9962 69.8479 33.1312 69.6229C33.2662 69.3529 33.4912 69.1729 33.6262 69.1729C33.7162 69.1729 33.8062 69.3529 33.8062 69.6229ZM115.75 71.1528C115.075 71.8728 114.445 72.1428 113.815 71.9628C112.915 71.7378 112.915 71.7378 113.86 71.0178C114.4 70.6128 115.255 70.2079 115.795 70.2079C116.695 70.1179 116.695 70.1179 115.75 71.1528ZM108.055 73.6278C108.055 73.8978 107.875 74.1678 107.695 74.3028C107.47 74.4378 107.29 74.2578 107.29 73.8978C107.29 73.5378 107.47 73.2228 107.695 73.2228C107.875 73.2228 108.055 73.4028 108.055 73.6278ZM106.705 75.0228C106.705 75.2478 106.525 75.4728 106.255 75.4728C106.03 75.4728 105.805 75.2478 105.805 75.0228C105.805 74.7528 106.03 74.5728 106.255 74.5728C106.525 74.5728 106.705 74.7528 106.705 75.0228ZM75.2056 78.5777C75.2056 78.9827 73.3606 79.6127 73.0456 79.2977C72.9556 79.2077 73.0006 78.9377 73.1806 78.6677C73.5406 78.0827 75.2056 77.9927 75.2056 78.5777ZM85.1954 79.2977C85.1054 79.9277 84.8354 80.4227 84.6104 80.4227C84.3854 80.4227 84.2054 79.9277 84.2054 79.2977C84.2054 78.6677 84.4754 78.1727 84.8354 78.1727C85.2404 78.1727 85.3754 78.5327 85.1954 79.2977ZM54.7309 83.5726C54.2809 84.0676 53.6959 84.4726 53.4709 84.4726C53.2009 84.4726 53.3809 84.0676 53.8309 83.5726C54.2809 83.0777 54.8659 82.6727 55.0909 82.6727C55.3609 82.6727 55.1809 83.0777 54.7309 83.5726ZM95.2303 84.4726C95.3652 84.6976 95.2753 84.9226 95.0503 84.9226C94.7803 84.9226 94.5553 84.6976 94.5553 84.4726C94.5553 84.2026 94.6453 84.0226 94.7353 84.0226C94.8703 84.0226 95.0953 84.2026 95.2303 84.4726ZM114.49 85.5076C114.355 85.7326 114.67 86.2726 115.21 86.7676C115.75 87.2626 116.155 87.8926 116.155 88.1626C116.155 88.4776 115.885 88.2976 115.525 87.8026C114.895 86.9926 114.85 86.9926 114.58 87.7126C114.22 88.6576 113.185 88.7926 112.87 87.9376C112.645 87.1726 113.005 85.8226 113.5 85.8226C113.725 85.8226 113.905 85.3726 113.905 84.7876C113.905 84.0226 113.995 83.9326 114.31 84.4726C114.58 84.8326 114.625 85.2826 114.49 85.5076ZM37.7212 87.2626C37.5862 87.6226 37.4512 87.4876 37.4512 86.9926C37.4062 86.4976 37.5412 86.2276 37.6762 86.4076C37.8112 86.5426 37.8562 86.9476 37.7212 87.2626ZM114.67 91.3125C114.535 91.6275 114.445 91.4025 114.445 90.7725C114.445 90.1425 114.535 89.9175 114.67 90.1875C114.76 90.5025 114.76 91.0425 114.67 91.3125ZM127.63 90.7275C127.765 90.9525 127.675 91.2675 127.405 91.4475C127.18 91.5825 126.955 91.4025 126.955 91.0425C126.955 90.2325 127.225 90.0975 127.63 90.7275ZM102.205 92.1225C102.205 92.3475 101.98 92.5725 101.71 92.5725C101.485 92.5725 101.395 92.3475 101.53 92.1225C101.665 91.8525 101.89 91.6725 102.025 91.6725C102.115 91.6725 102.205 91.8525 102.205 92.1225ZM56.4409 93.2475C56.3059 93.6525 56.0809 93.8775 55.9909 93.7425C55.8559 93.6075 55.9009 93.3375 56.0809 93.0675C56.4859 92.3475 56.7558 92.4825 56.4409 93.2475ZM30.2063 94.4625C30.2063 95.0475 29.1713 94.6875 28.9463 94.0125C28.8563 93.6975 29.0363 93.5625 29.4863 93.7425C29.8913 93.8775 30.2063 94.2375 30.2063 94.4625ZM200.754 94.2825C200.754 94.4625 200.259 94.6425 199.584 94.6425C198.549 94.7325 198.504 94.6875 199.269 94.1475C200.034 93.5625 200.754 93.6525 200.754 94.2825ZM178.119 97.7474C177.759 98.5574 176.859 98.6474 177.039 97.8374C177.129 97.2524 177.894 96.5774 178.164 96.8474C178.299 96.9374 178.254 97.3424 178.119 97.7474ZM186.354 98.4674C186.354 98.6474 185.949 98.8724 185.454 99.0074C184.419 99.2774 184.374 99.1424 185.049 97.8824C185.454 97.1174 185.634 97.0724 185.949 97.5674C186.174 97.9274 186.354 98.3324 186.354 98.4674ZM182.754 98.4674C182.754 98.7374 182.574 98.7824 182.304 98.6474C182.079 98.5124 181.854 98.1524 181.854 97.9274C181.854 97.6574 182.079 97.6124 182.304 97.7474C182.574 97.8824 182.754 98.2424 182.754 98.4674ZM177.264 100.447C177.129 100.582 176.859 100.357 176.724 99.9074C176.454 99.2774 176.499 99.2324 176.949 99.6374C177.264 99.9524 177.399 100.312 177.264 100.447ZM192.654 100.402C192.654 100.537 192.474 100.762 192.204 100.897C191.979 101.032 191.754 100.942 191.754 100.717C191.754 100.447 191.979 100.222 192.204 100.222C192.474 100.222 192.654 100.312 192.654 100.402ZM26.6063 102.427C26.6063 102.652 26.3363 103.057 25.9763 103.327C25.4363 103.777 25.3914 103.687 25.5714 102.967C25.7964 102.022 26.6063 101.617 26.6063 102.427ZM199.494 102.877C199.269 103.012 198.864 103.552 198.594 104.047C198.099 104.902 198.099 104.902 198.054 103.912C198.054 103.372 198.279 102.922 198.549 102.922C198.774 102.922 198.864 102.742 198.729 102.472C198.594 102.202 198.774 102.157 199.179 102.337C199.584 102.472 199.764 102.742 199.494 102.877ZM114.355 102.922C114.355 103.147 114.265 103.372 114.175 103.372C114.04 103.372 113.815 103.147 113.68 102.922C113.545 102.652 113.635 102.472 113.86 102.472C114.13 102.472 114.355 102.652 114.355 102.922ZM166.554 103.372C166.554 103.597 166.464 103.822 166.374 103.822C166.239 103.822 166.014 103.597 165.879 103.372C165.744 103.102 165.834 102.922 166.059 102.922C166.329 102.922 166.554 103.102 166.554 103.372ZM174.654 103.822C174.654 104.047 174.474 104.272 174.204 104.272C173.979 104.272 173.754 104.047 173.754 103.822C173.754 103.552 173.979 103.372 174.204 103.372C174.474 103.372 174.654 103.552 174.654 103.822ZM195.444 103.912L196.839 103.687L196.479 106.342C196.029 110.122 193.869 118.267 192.204 122.497C191.439 124.477 190.764 126.277 190.719 126.547C190.629 126.772 190.449 127.267 190.269 127.537C190.044 127.852 190.044 128.302 190.179 128.572C190.314 128.797 190.269 129.022 190.044 129.022C189.774 129.022 188.469 131.002 187.119 133.387C181.269 143.692 176.184 149.587 165.024 158.991C164.349 159.576 163.674 160.071 163.584 160.071C163.494 160.071 162.459 160.746 161.289 161.601C156.249 165.156 146.844 169.746 140.815 171.591C138.925 172.176 138.34 172.536 138.52 173.076C138.7 173.661 138.655 173.661 138.295 173.166C137.935 172.671 137.17 172.716 133.795 173.526C131.59 174.021 129.34 174.471 128.845 174.471C128.35 174.471 127.855 174.786 127.675 175.146C127.54 175.506 127.09 175.821 126.73 175.821C126.325 175.821 126.145 175.596 126.28 175.326C126.505 175.011 125.965 174.966 124.435 175.191C120.655 175.821 107.74 175.551 102.88 174.741C88.6604 172.356 77.2305 167.541 66.0707 159.261C60.6258 155.257 53.5159 148.192 49.826 143.197C48.386 141.217 46.856 139.327 46.496 139.012C46.091 138.742 45.911 138.472 46.091 138.472C46.271 138.472 45.821 137.527 45.0561 136.357C44.3361 135.142 43.8861 134.062 44.0661 133.927C44.2461 133.747 45.0111 133.522 45.731 133.387C46.991 133.162 47.216 133.342 48.431 135.232C52.4359 141.667 58.7808 148.912 64.8557 153.997C70.8856 158.991 76.3755 162.366 85.1054 166.236C90.4153 168.621 99.0102 170.826 106.705 171.771C111.835 172.401 112.555 172.356 112.555 171.501C112.555 171.141 112.78 170.961 113.005 171.096C113.275 171.276 113.365 171.591 113.23 171.816C113.05 172.041 113.905 172.221 115.165 172.221C117.01 172.221 117.46 172.041 117.865 171.231L118.36 170.196V171.231C118.405 172.266 118.45 172.311 121.915 171.996C139.15 170.511 156.654 162.726 168.939 151.117C170.154 149.992 171.324 148.597 171.549 148.012C171.774 147.427 172.134 147.067 172.404 147.247C172.629 147.382 174.069 145.942 175.644 144.052C185.094 132.577 190.494 120.562 193.284 104.722C193.554 103.147 193.599 103.102 193.824 103.642C193.914 103.912 194.634 104.002 195.444 103.912ZM45.551 105.487C45.011 106.387 44.9211 106.117 45.326 104.947C45.506 104.542 45.731 104.317 45.821 104.452C45.956 104.542 45.821 105.037 45.551 105.487ZM79.2555 106.612C79.2555 107.467 79.1655 107.512 78.8055 106.972C78.2205 106.117 78.2205 105.622 78.8055 105.622C79.0755 105.622 79.2555 106.072 79.2555 106.612ZM144.324 106.837C143.874 107.287 143.47 106.612 143.875 106.027C144.144 105.532 144.234 105.532 144.414 106.027C144.504 106.342 144.459 106.702 144.324 106.837ZM146.124 106.837C145.674 107.287 145.269 106.612 145.674 106.027C145.944 105.532 146.034 105.532 146.214 106.027C146.304 106.342 146.259 106.702 146.124 106.837ZM199.224 108.187C198.774 108.637 198.369 107.962 198.774 107.377C199.044 106.882 199.134 106.882 199.314 107.377C199.404 107.692 199.359 108.052 199.224 108.187ZM143.155 109.942C143.155 110.302 142.975 110.482 142.705 110.347C142.48 110.212 142.255 109.897 142.255 109.627C142.255 109.402 142.48 109.222 142.705 109.222C142.975 109.222 143.155 109.537 143.155 109.942ZM162.504 110.887C162.504 111.067 161.604 113.047 160.524 115.297C156.294 123.982 149.274 131.587 140.68 136.807C137.845 138.562 131.32 141.307 128.845 141.847C128.035 141.982 127.495 142.297 127.585 142.432C127.675 142.612 127.135 142.747 126.37 142.792C125.56 142.792 122.77 143.062 120.07 143.422C106.075 145.132 90.0553 139.462 80.2005 129.292C79.0755 128.167 78.2655 127.177 78.4005 127.087C78.4905 126.997 91.1353 124.432 106.48 121.417C121.825 118.402 134.695 115.792 135.055 115.657C135.415 115.522 135.865 115.432 136.045 115.432C136.225 115.477 137.845 115.207 139.645 114.802C141.445 114.442 143.65 114.037 144.505 113.902C145.359 113.767 149.319 113.002 153.279 112.147C160.794 110.617 162.504 110.347 162.504 110.887ZM182.754 110.752C182.754 110.887 182.574 111.112 182.304 111.247C182.079 111.382 181.854 111.292 181.854 111.067C181.854 110.797 182.079 110.572 182.304 110.572C182.574 110.572 182.754 110.662 182.754 110.752ZM113.23 111.472C113.365 111.697 113.275 111.922 113.05 111.922C112.78 111.922 112.555 111.697 112.555 111.472C112.555 111.202 112.645 111.022 112.735 111.022C112.87 111.022 113.095 111.202 113.23 111.472ZM169.704 111.697C169.704 112.057 169.524 112.372 169.254 112.372C169.029 112.372 168.804 112.057 168.804 111.697C168.804 111.337 169.029 111.022 169.254 111.022C169.524 111.022 169.704 111.337 169.704 111.697ZM145.944 112.462C145.629 112.777 145.404 112.822 145.404 112.552C145.404 111.922 145.944 111.382 146.259 111.697C146.349 111.832 146.214 112.192 145.944 112.462ZM116.38 115.072C116.515 115.297 116.425 115.522 116.2 115.522C115.93 115.522 115.705 115.297 115.705 115.072C115.705 114.802 115.795 114.622 115.885 114.622C116.02 114.622 116.245 114.802 116.38 115.072ZM173.754 115.747C173.754 115.567 174.024 115.657 174.384 115.927C174.834 116.332 175.104 116.287 175.554 115.747C176.364 114.757 176.859 114.892 177.174 116.197C177.354 116.917 177.759 117.322 178.344 117.322C178.974 117.322 179.154 117.547 178.974 117.997C178.839 118.447 179.109 118.762 179.829 118.942C181.179 119.257 181.224 119.617 180.054 120.697C179.424 121.282 179.289 121.687 179.604 122.047C179.964 122.452 179.874 122.677 179.334 122.902C178.794 123.127 178.704 123.487 178.884 124.342C179.199 125.512 179.154 125.512 177.579 125.242C176.274 124.972 176.004 125.062 176.004 125.692C176.004 126.322 175.869 126.322 175.329 125.872C174.744 125.422 174.474 125.422 173.844 126.052C172.719 126.997 172.539 126.952 172.224 125.647C172.044 125.017 171.639 124.522 171.279 124.522C170.919 124.522 170.604 124.207 170.604 123.847C170.604 123.442 170.064 122.947 169.434 122.677C168.264 122.272 168.264 122.227 169.074 121.327C169.569 120.787 169.884 119.977 169.794 119.527C169.704 119.077 169.884 118.672 170.199 118.672C170.514 118.672 170.604 118.222 170.469 117.502C170.289 116.422 170.379 116.332 171.504 116.602C172.629 116.782 172.719 116.737 172.494 115.837C172.269 114.937 172.314 114.937 172.989 115.477C173.394 115.792 173.754 115.927 173.754 115.747ZM118.405 116.692C118.405 117.322 118.27 117.322 117.73 116.872C117.37 116.557 117.055 116.242 117.055 116.152C117.055 116.062 117.37 115.972 117.73 115.972C118.09 115.972 118.405 116.287 118.405 116.692ZM185.319 117.862C185.184 118.222 185.049 118.087 185.049 117.592C185.004 117.097 185.139 116.827 185.274 117.007C185.409 117.142 185.454 117.547 185.319 117.862ZM108.955 118.402C108.955 118.537 108.775 118.762 108.505 118.897C108.28 119.032 108.055 118.942 108.055 118.717C108.055 118.447 108.28 118.222 108.505 118.222C108.775 118.222 108.955 118.312 108.955 118.402ZM80.2005 119.752C80.4255 119.617 80.6055 119.752 80.6055 120.022C80.6055 120.697 79.5705 120.337 79.4355 119.662C79.3905 119.347 79.4355 119.302 79.5705 119.572C79.6605 119.797 79.9755 119.932 80.2005 119.752ZM160.254 123.172C160.254 123.397 160.164 123.622 160.074 123.622C159.939 123.622 159.714 123.397 159.579 123.172C159.444 122.902 159.534 122.722 159.759 122.722C160.029 122.722 160.254 122.902 160.254 123.172ZM36.0562 126.592C36.0562 126.952 35.8762 127.132 35.6062 126.997C35.3812 126.862 35.1562 126.547 35.1562 126.277C35.1562 126.052 35.3812 125.872 35.6062 125.872C35.8762 125.872 36.0562 126.187 36.0562 126.592ZM176.994 127.762C176.679 128.077 176.454 128.122 176.454 127.852C176.454 127.222 176.994 126.682 177.309 126.997C177.399 127.132 177.264 127.492 176.994 127.762ZM30.5213 128.662C30.3863 128.977 30.2963 128.752 30.2963 128.122C30.2963 127.492 30.3863 127.267 30.5213 127.537C30.6113 127.852 30.6113 128.392 30.5213 128.662ZM32.7712 128.212C32.6362 128.572 32.5012 128.437 32.5012 127.942C32.4562 127.447 32.5912 127.177 32.7262 127.357C32.8612 127.492 32.9062 127.897 32.7712 128.212ZM74.5756 137.257C75.1606 137.032 75.2506 137.167 75.0256 137.887C74.8006 138.607 74.9806 138.877 75.8806 139.102C77.1855 139.417 77.3205 139.912 76.3305 140.722C75.9256 141.037 75.7456 141.667 75.8806 142.117C76.0606 142.702 75.9256 142.972 75.4756 142.972C74.9356 142.972 74.8456 143.287 75.0706 144.367C75.2956 145.672 75.2956 145.717 74.0806 145.402C73.2706 145.222 72.7306 145.312 72.5056 145.717C72.2356 146.122 71.9656 146.167 71.5156 145.807C71.0656 145.447 70.7056 145.447 70.0756 145.942C68.8607 146.797 68.5457 146.752 68.3657 145.537C68.2757 144.862 67.9607 144.592 67.4207 144.682C66.7457 144.817 66.6557 144.637 66.8807 143.917C67.1057 143.197 66.9257 142.927 66.0257 142.702C64.6757 142.387 64.5857 141.982 65.5307 141.172C65.9357 140.857 66.1157 140.227 65.9807 139.777C65.8007 139.192 65.9357 138.922 66.3857 138.922C66.7907 138.922 67.1057 138.607 67.1057 138.247C67.1057 137.887 66.8357 137.662 66.5657 137.752C66.2507 137.797 66.1157 137.797 66.3407 137.707C66.5207 137.572 66.6557 137.167 66.6557 136.807C66.6557 136.312 66.9707 136.177 67.8707 136.402C68.5907 136.627 69.1757 136.537 69.4007 136.177C69.6257 135.727 69.8956 135.727 70.3456 136.087C70.7956 136.492 71.2006 136.402 72.0556 135.772L73.1806 134.917L73.5406 136.222C73.7656 137.167 74.0806 137.482 74.5756 137.257ZM155.754 138.922C155.394 139.147 155.259 139.462 155.439 139.642C155.619 139.822 156.159 139.597 156.609 139.192C157.644 138.247 158.454 138.562 158.454 139.867C158.454 140.407 158.769 140.722 159.309 140.722C159.804 140.722 160.119 140.992 160.074 141.442C160.074 141.847 160.299 142.297 160.614 142.387C160.884 142.522 161.154 142.252 161.199 141.757C161.199 141.127 161.334 141.217 161.649 142.072C162.009 143.017 161.919 143.332 161.109 143.962C160.344 144.592 160.254 144.907 160.659 145.402C161.064 145.897 161.019 146.077 160.434 146.302C159.939 146.482 159.759 146.932 159.939 147.742C160.119 148.822 160.074 148.867 158.634 148.597C157.599 148.417 157.104 148.507 157.104 148.867C157.104 149.137 156.789 149.227 156.384 149.092C156.024 148.957 155.214 149.137 154.629 149.542C153.594 150.217 153.549 150.217 153.234 149.092C153.054 148.327 152.649 147.922 152.064 147.922C151.434 147.922 151.254 147.697 151.434 147.247C151.614 146.797 151.299 146.392 150.579 146.122C149.409 145.672 149.454 144.592 150.669 144.142C151.209 143.917 151.254 143.737 150.804 143.197C150.354 142.657 150.399 142.477 151.029 142.252C151.569 142.027 151.704 141.622 151.479 140.812C151.209 139.777 151.299 139.732 152.829 140.002C154.044 140.227 154.404 140.182 154.404 139.642C154.404 139.012 155.034 138.562 155.979 138.517C156.249 138.517 156.114 138.652 155.754 138.922ZM91.4053 140.272C91.4053 140.497 91.1803 140.722 90.9103 140.722C90.6853 140.722 90.5953 140.497 90.7303 140.272C90.8653 140.002 91.0903 139.822 91.2253 139.822C91.3153 139.822 91.4053 140.002 91.4053 140.272ZM102.88 145.672C103.015 145.897 102.925 146.122 102.7 146.122C102.43 146.122 102.205 145.897 102.205 145.672C102.205 145.402 102.295 145.222 102.385 145.222C102.52 145.222 102.745 145.402 102.88 145.672ZM124.12 148.012C123.985 148.372 123.85 148.237 123.85 147.742C123.805 147.247 123.94 146.977 124.075 147.157C124.21 147.292 124.255 147.697 124.12 148.012ZM99.3702 151.972C99.6852 151.972 99.9552 152.377 99.9552 152.827C99.9552 153.367 100.36 153.772 101.125 153.952L102.34 154.267L101.35 155.302C100.63 156.067 100.495 156.472 100.9 156.697C101.26 156.967 101.215 157.147 100.675 157.461C100.27 157.686 99.9552 158.451 99.9552 159.171C99.9552 159.936 99.7302 160.521 99.4602 160.521C99.1002 160.521 99.1002 160.746 99.5052 161.196C99.9102 161.646 99.9102 161.871 99.5502 161.871C99.1002 161.871 98.9652 161.556 99.1002 160.701C99.1902 159.891 97.8852 159.711 97.3452 160.431C96.8952 161.061 96.7152 161.061 96.4002 160.566C96.0852 160.071 95.8153 160.116 94.9153 160.701C93.7003 161.466 93.2053 161.286 93.2053 159.981C93.2053 159.486 92.8903 159.171 92.3503 159.171C91.8103 159.171 91.5403 158.856 91.5853 158.406C91.5853 157.956 91.4503 157.596 91.1803 157.596C90.9553 157.596 90.4603 157.416 90.1453 157.191C89.6503 156.922 89.6954 156.697 90.2803 156.022C90.6403 155.617 90.8653 154.942 90.6853 154.492C90.5053 153.997 90.6403 153.772 91.1803 153.772C91.8103 153.772 91.9003 153.457 91.7653 152.377C91.5403 151.072 91.6303 150.982 92.8453 151.252C93.7453 151.432 94.1953 151.297 94.4203 150.847C94.6003 150.307 94.8253 150.262 95.2753 150.667C95.7253 151.027 96.1302 150.982 96.8952 150.397C97.8852 149.722 97.9302 149.722 98.3352 150.847C98.6052 151.477 99.0552 151.972 99.3702 151.972ZM112.78 151.072C112.915 151.297 112.825 151.522 112.6 151.522C112.33 151.522 112.105 151.297 112.105 151.072C112.105 150.802 112.195 150.622 112.285 150.622C112.42 150.622 112.645 150.802 112.78 151.072ZM157.869 152.512C157.734 152.827 157.644 152.602 157.644 151.972C157.644 151.342 157.734 151.117 157.869 151.387C157.959 151.702 157.959 152.242 157.869 152.512ZM130.915 152.827C131.005 153.502 131.32 153.772 131.725 153.592C132.13 153.412 132.355 153.637 132.355 154.267C132.355 154.807 132.805 155.302 133.525 155.617L134.74 156.067L133.795 157.057C133.03 157.866 132.94 158.226 133.345 158.631C133.75 159.036 133.705 159.171 133.12 159.171C132.58 159.171 132.355 159.531 132.355 160.566C132.355 161.871 132.265 161.916 131.005 161.646C130.15 161.466 129.655 161.511 129.655 161.826C129.655 162.141 129.25 162.231 128.62 162.096C127.945 161.916 127.36 162.051 127 162.501C126.505 163.086 126.28 163.041 125.38 162.051C124.705 161.331 124.075 161.016 123.715 161.241C123.265 161.466 123.22 161.421 123.715 160.926C123.985 160.611 124.255 160.071 124.255 159.756C124.255 159.441 123.985 159.171 123.715 159.171C123.4 159.171 122.815 158.946 122.455 158.721C121.87 158.361 121.96 158.181 122.815 157.551C123.58 157.012 123.715 156.697 123.355 156.247C122.995 155.842 123.085 155.617 123.58 155.392C123.985 155.257 124.255 154.582 124.255 153.817C124.255 152.557 124.345 152.467 125.38 152.872C126.28 153.232 126.595 153.142 126.82 152.647C127 152.107 127.18 152.062 127.72 152.467C128.215 152.917 128.53 152.872 129.115 152.287C130.06 151.297 130.735 151.522 130.915 152.827ZM121.87 154.762C121.735 155.122 121.6 154.987 121.6 154.492C121.555 153.997 121.69 153.727 121.825 153.907C121.96 154.042 122.005 154.447 121.87 154.762ZM120.205 156.877C119.935 157.416 119.845 158.091 120.025 158.406C120.25 158.811 120.205 158.811 119.755 158.406C119.26 157.956 119.26 157.596 119.71 156.652C119.98 155.977 120.34 155.572 120.475 155.707C120.61 155.842 120.52 156.382 120.205 156.877ZM117.01 159.981C117.01 160.431 116.875 160.521 116.785 160.206C116.65 159.891 116.245 159.801 115.885 159.936C115.525 160.071 115.255 159.981 115.255 159.756C115.255 159.531 115.66 159.351 116.155 159.306C116.74 159.261 117.055 159.486 117.01 159.981ZM106.12 161.061C105.985 161.421 105.85 161.286 105.85 160.791C105.805 160.296 105.94 160.026 106.075 160.206C106.21 160.341 106.255 160.746 106.12 161.061ZM112.555 161.151C112.555 161.286 112.375 161.511 112.105 161.646C111.88 161.781 111.655 161.691 111.655 161.466C111.655 161.196 111.88 160.971 112.105 160.971C112.375 160.971 112.555 161.061 112.555 161.151ZM113.095 163.761C112.42 164.436 111.925 163.941 112.285 162.951C112.51 162.366 112.69 162.276 113.095 162.681C113.5 163.086 113.5 163.356 113.095 163.761ZM104.455 162.951C104.455 163.086 104.275 163.311 104.005 163.446C103.78 163.581 103.555 163.491 103.555 163.266C103.555 162.996 103.78 162.771 104.005 162.771C104.275 162.771 104.455 162.861 104.455 162.951ZM111.655 162.951C111.655 163.086 111.475 163.311 111.205 163.446C110.98 163.581 110.755 163.491 110.755 163.266C110.755 162.996 110.98 162.771 111.205 162.771C111.475 162.771 111.655 162.861 111.655 162.951ZM130.375 164.481C129.385 164.706 129.025 164.346 129.43 163.671C129.655 163.311 129.925 163.356 130.42 163.761C131.095 164.301 131.05 164.346 130.375 164.481ZM131.005 166.416C131.005 166.641 130.825 166.821 130.555 166.821C130.33 166.821 130.105 166.506 130.105 166.101C130.105 165.741 130.33 165.561 130.555 165.696C130.825 165.831 131.005 166.146 131.005 166.416ZM155.304 166.866C155.304 167.136 155.124 167.181 154.854 167.046C154.629 166.911 154.404 166.551 154.404 166.326C154.404 166.056 154.629 166.011 154.854 166.146C155.124 166.281 155.304 166.641 155.304 166.866ZM114.58 168.621C114.715 168.846 114.625 169.071 114.4 169.071C114.13 169.071 113.905 168.846 113.905 168.621C113.905 168.351 113.995 168.171 114.085 168.171C114.22 168.171 114.445 168.351 114.58 168.621ZM81.5055 169.746C81.9555 170.331 81.9105 170.421 81.1005 170.421C80.5605 170.421 80.1555 170.151 80.1555 169.746C80.1555 169.386 80.3355 169.071 80.5605 169.071C80.7855 169.071 81.1905 169.386 81.5055 169.746ZM122.455 169.521C122.455 169.746 122.23 169.971 121.96 169.971C121.735 169.971 121.645 169.746 121.78 169.521C121.915 169.251 122.14 169.071 122.275 169.071C122.365 169.071 122.455 169.251 122.455 169.521ZM111.205 170.196C111.205 170.556 111.115 170.871 111.025 170.871C110.935 170.871 110.755 170.556 110.575 170.196C110.44 169.836 110.53 169.521 110.755 169.521C111.025 169.521 111.205 169.836 111.205 170.196ZM116.605 177.351C116.605 177.486 116.425 177.711 116.155 177.846C115.93 177.981 115.705 177.891 115.705 177.666C115.705 177.396 115.93 177.171 116.155 177.171C116.425 177.171 116.605 177.261 116.605 177.351ZM128.755 180.771C128.755 180.996 128.665 181.221 128.575 181.221C128.44 181.221 128.215 180.996 128.08 180.771C127.945 180.501 128.035 180.321 128.26 180.321C128.53 180.321 128.755 180.501 128.755 180.771Z" fill="#F2A83A"/>
<path d="M52.9741 98.8093C53.1927 100.043 53.3128 101.715 53.3343 103.823C53.4686 103.664 53.6653 103.399 53.9246 103.028C54.2271 102.595 54.8669 101.927 55.8442 101.023L56.3582 100.485L57.4351 99.6845L58.5814 98.5877C58.5196 98.5445 58.5619 98.4016 58.7085 98.1589C59.0539 97.2041 59.2079 96.3914 59.1703 95.721C59.1099 95.3797 59.0131 95.1395 58.8802 95.0006C58.7426 94.8354 58.3935 94.7754 57.8327 94.8205C57.7709 94.7773 57.5098 94.7559 57.0495 94.7562C55.9729 94.9469 55.2625 95.1405 54.9181 95.3369C54.6 95.5287 54.3491 95.6408 54.1653 95.6734L53.6024 95.9356L52.9398 96.0936L52.9706 97.185C52.9753 97.2112 52.9693 97.4831 52.9527 98.0006C52.9852 98.1844 52.9924 98.454 52.9741 98.8093ZM62.754 115.032C62.3369 114.97 61.718 114.687 60.8974 114.183C60.7336 114.022 60.3364 113.768 59.7059 113.419C59.1249 113.197 58.3592 112.696 57.4086 111.917C57.4039 111.89 57.2748 111.697 57.0212 111.335C56.655 111.102 56.2507 110.578 55.8083 109.763C55.7774 109.741 55.7287 109.696 55.6623 109.626C55.5958 109.557 55.4829 109.455 55.3237 109.321C55.1862 109.155 55.0145 108.874 54.8088 108.477C54.6031 108.081 54.2591 107.668 53.7768 107.238L53.6193 107.266C53.6472 107.424 53.6473 107.654 53.6197 107.957L53.7593 108.745L53.9277 111.071L54.0137 114.996C54.156 115.188 54.2188 115.542 54.2021 116.06C54.2394 116.27 54.2342 116.623 54.1866 117.118C54.1391 117.614 53.998 117.964 53.7633 118.168C53.5286 118.373 53.0213 118.489 52.2412 118.519C51.96 118.461 51.5273 118.158 50.943 117.612C50.7452 117.566 50.4082 117.192 49.932 116.491C49.9007 116.009 49.8627 115.718 49.8178 115.618C49.7683 115.491 49.7273 115.336 49.6947 115.152C49.6621 114.968 49.6543 114.848 49.6713 114.79C49.6281 114.852 49.5816 114.59 49.5317 114.003L49.4829 113.727C49.4643 113.622 49.4686 113.188 49.4959 112.425C49.3982 111.873 49.3308 111.493 49.2936 111.283C49.2779 111.042 49.321 110.75 49.4227 110.407L49.2343 109.343L49.0853 108.273C49.1591 107.772 49.1402 107.207 49.0286 106.577C49.0252 106.252 48.998 105.946 48.9468 105.657C48.9173 105.337 48.9093 104.986 48.923 104.605C48.8206 104.027 48.7832 103.587 48.8109 103.284C48.8338 102.955 48.836 102.738 48.8174 102.633C48.8204 102.497 48.8117 102.296 48.7915 102.028L48.7671 100.286L48.4457 97.7835L47.9172 97.5522C47.0165 97.3597 46.3652 97.123 45.9634 96.8421C45.8181 96.7866 45.7307 96.599 45.7012 96.2792C45.6932 95.9286 45.8282 95.6203 46.1061 95.3544C46.4737 95.2893 46.9724 94.9707 47.6023 94.3987C47.6811 94.3848 47.8941 94.2116 48.2415 93.8793L48.9086 93.5174C48.9734 93.4246 49.276 93.2221 49.8165 92.9097C49.9478 92.8864 50.1462 92.7835 50.4118 92.6011C50.6727 92.3924 50.9584 92.247 51.2688 92.1649C51.5267 92.0921 52.0403 91.9334 52.8094 91.6888C53.6001 91.4133 54.2851 91.3055 54.8645 91.3654C55.2058 91.3049 55.5851 91.3054 56.0022 91.3669C56.6324 91.2553 57.3786 91.3397 58.2407 91.6203C58.4245 91.5877 58.708 91.6594 59.0913 91.8352L59.9024 92.0571L61.0266 92.6704C61.6571 93.0191 62.256 93.4953 62.8234 94.0989C63.1943 94.3581 63.3845 94.7442 63.3942 95.2571C63.4313 97.6066 62.2451 100.159 59.8355 102.915L58.784 103.63L57.0704 105.193C57.8897 105.995 58.9338 106.921 60.2027 107.969C60.3141 108.139 60.6812 108.453 61.304 108.911L62.9362 110.328L63.5345 110.953L64.8072 111.946C64.9186 112.116 65.1813 112.3 65.5954 112.497L66.3767 113.009C67.0643 113.375 67.4091 113.869 67.4111 114.491C67.4131 115.114 67.1013 115.494 66.4757 115.632L65.5165 115.721L63.5352 115.544L62.754 115.032ZM77.7366 108.762C77.7256 108.547 77.6899 108.269 77.6294 107.928C77.5689 107.587 77.4566 107.106 77.2925 106.485C77.2552 106.275 76.8541 105.845 76.089 105.195L75.8108 105C75.8267 105.702 75.8285 106.094 75.8162 106.178C75.7823 106.292 75.9099 107.623 76.1989 110.172C76.7241 110.079 77.1125 109.902 77.3641 109.641L77.7366 108.762ZM72.7483 92.2999L72.6301 92.3208C72.2642 92.5482 71.9022 92.9508 71.5442 93.5288C71.3823 93.9908 71.32 94.3268 71.3572 94.5369L71.2748 96.1358C71.3682 97.1213 71.5285 97.797 71.7559 98.1629C71.7931 98.373 72.059 98.6509 72.5535 98.9966C72.6293 99.1186 72.8812 99.3177 73.3093 99.5939C73.2983 99.3792 73.301 98.7829 73.3174 97.8051C73.2835 97.9194 73.2479 97.8715 73.2107 97.6615C73.0725 96.5756 73.0534 95.78 73.1535 95.2748C73.0262 94.4037 72.9363 93.9728 72.8838 93.9821C72.8529 93.9605 72.8195 93.6956 72.7836 93.1874C72.774 92.6745 72.7622 92.3787 72.7483 92.2999ZM73.8016 104.666L72.9905 104.444C72.9117 104.458 72.6034 104.323 72.0657 104.039C71.5542 103.75 71.252 103.574 71.1593 103.509C71.0619 103.418 70.9823 103.351 70.9205 103.308L70.3596 103.123C70.0475 103.042 69.7694 102.848 69.5251 102.539L68.4029 101.479C68.3364 101.409 68.1933 101.137 67.9736 100.661C67.85 100.575 67.7078 100.383 67.5469 100.087C67.3861 99.7902 67.3002 99.5346 67.2892 99.3199C67.1516 99.1547 67.0401 98.7547 66.9547 98.1198C66.8956 97.4803 66.8428 97.0293 66.7962 96.7667C66.7497 96.5041 66.7233 96.2786 66.717 96.0902C66.8636 95.8475 66.8849 95.3563 66.7809 94.6164C66.8025 94.5855 66.8171 94.5152 66.8248 94.4055C66.8633 94.3175 66.9966 93.847 67.2247 92.9941C67.3111 92.8705 67.4238 92.7422 67.5627 92.6093C67.697 92.4501 67.8459 92.2206 68.0095 91.9208C68.062 91.9115 68.194 91.7391 68.4054 91.4038C68.6121 91.0422 68.8568 90.7415 69.1393 90.5019C69.3494 90.4647 69.581 90.3966 69.8343 90.2975C70.9787 89.8781 71.9617 89.5415 72.7833 89.2876L72.8682 87.932C72.7565 87.3018 72.9354 86.7827 73.4047 86.3745L73.6525 86.1682C74.2903 85.9468 74.6843 86.1072 74.8345 86.6493C75.011 87.1868 75.0525 88.0325 74.9591 89.1865L76.0968 89.1881C76.8183 89.4394 77.2943 89.68 77.5246 89.91C78.0315 90.1723 78.5446 90.623 79.0641 91.2622C79.8328 92.6968 80.2027 93.7145 80.1738 94.3155C80.2096 94.8237 80.2894 95.121 80.413 95.2074C80.5599 95.4251 80.4813 95.6692 80.1772 95.9398C79.8684 96.1841 79.463 96.4184 78.9611 96.6427C78.4808 96.8361 78.1634 96.8788 78.0089 96.7708C77.5362 96.8545 77.1831 96.6192 76.9495 96.0648L76.5113 95.6549C76.3334 95.4156 76.2283 95.204 76.1957 95.0202C76.1585 94.8102 76.0237 94.2789 75.7914 93.4263C75.6153 93.3492 75.32 92.9817 74.9056 92.324L75.0958 96.1494C75.1267 96.171 75.1362 96.4537 75.1242 96.9975C75.1122 97.5412 75.1519 97.9946 75.2433 98.3576C75.33 98.6943 75.3498 99.3407 75.3025 100.297C75.6023 100.461 76.269 100.708 77.3027 101.039C78.3317 101.345 78.9637 101.625 79.1987 101.882L80.279 102.706L80.9864 103.718C81.0576 103.814 81.1907 104.183 81.3857 104.825C81.6024 105.437 81.7101 105.892 81.7087 106.19C81.8633 106.298 81.9106 106.641 81.8508 107.221C81.891 107.295 81.9244 107.56 81.9509 108.016C81.8648 108.599 81.7832 108.98 81.7061 109.156C81.7293 109.287 81.5789 109.584 81.2548 110.048C81.0497 110.572 80.8284 111.004 80.5907 111.344C80.3484 111.658 79.9339 112.07 79.3472 112.58C79.2625 112.866 78.7699 113.142 77.8694 113.41C77.5298 113.633 77.21 113.662 76.9102 113.499C76.762 113.579 76.5519 113.617 76.28 113.611L76.2904 115.274C76.0736 116.802 75.8911 117.606 75.7429 117.687C75.4125 117.962 75.1753 117.923 75.0314 117.569C74.8922 117.242 74.8078 116.918 74.7782 116.598C74.7749 116.274 74.7686 116.086 74.7593 116.033L74.7568 115.79L74.7219 115.593C74.708 115.514 74.6917 115.422 74.6731 115.317C74.6854 115.234 74.6799 115.126 74.6566 114.995C74.6596 114.859 74.6726 114.627 74.6956 114.298C74.7185 113.968 74.7114 113.699 74.6742 113.489L74.1736 113.415L73.2144 113.504L72.5817 113.372C72.4534 113.259 71.8809 113.009 70.8642 112.62C70.6541 112.657 70.4177 112.469 70.1548 112.055C70.0574 111.964 69.9113 111.828 69.7166 111.645C69.3363 111.334 69.1137 110.994 69.0485 110.626C68.8614 110.334 68.8033 110.006 68.8741 109.642C69.167 108.696 69.9283 108.331 71.1581 108.546C71.189 108.568 71.2902 108.604 71.4617 108.655C71.7568 108.792 72.2529 109.07 72.9498 109.488C73.6468 109.906 74.0239 110.124 74.081 110.141C74.1336 110.132 74.2456 110.152 74.4171 110.203C74.3985 110.098 74.3976 110.017 74.4146 109.96C74.4671 109.951 74.5211 109.873 74.5766 109.728C74.6012 109.561 74.5439 109.314 74.4047 108.987C74.3954 108.934 74.3085 108.367 74.144 107.286C74.0011 106.174 73.9111 105.513 73.8739 105.303C73.832 105.067 73.8304 104.904 73.8689 104.816C73.838 104.795 73.8156 104.745 73.8016 104.666ZM100.915 110.14C100.697 110.287 100.312 110.409 99.7608 110.507C99.2094 110.605 98.5545 110.653 97.796 110.652C96.2697 110.597 95.2206 110.255 94.6486 109.625C93.9035 108.782 93.4355 107.822 93.2448 106.746C92.9723 105.819 93.3743 105.26 94.4509 105.07C94.6872 105.028 94.9769 105.058 95.3199 105.16C95.6892 105.257 95.9511 105.359 96.1056 105.467C96.2771 105.518 96.617 105.526 97.1252 105.49C98.7116 105.425 100.09 104.721 101.26 103.376C102.036 102.561 102.466 101.93 102.549 101.482C102.654 101.003 102.653 100.462 102.546 99.8577C102.439 99.2538 102.113 98.9458 101.57 98.9338C101.021 98.8956 100.461 99.0218 99.89 99.3126C99.3402 99.5725 98.7572 99.7977 98.141 99.9881C97.5527 100.336 96.9912 100.3 96.4564 99.8803C95.9479 99.4559 95.6669 98.5578 95.6135 97.1861C95.6208 96.6161 95.7325 96.1765 95.9486 95.8674C96.6635 95.4699 97.3793 95.1535 98.0959 94.9182C98.3013 94.8548 98.59 94.5734 98.9619 94.0742C99.3602 93.5704 99.7737 92.8471 100.202 91.9045C100.653 90.931 100.73 90.1455 100.435 89.5479C100.139 88.9502 99.6381 88.7953 98.9308 89.0831C98.4149 89.2287 98.0458 89.3618 97.8235 89.4824C97.6227 89.5721 97.1479 89.8729 96.399 90.3847C95.3042 90.9308 94.5073 91.248 94.0084 91.3364C93.5357 91.4201 93.1533 91.3254 92.8612 91.0521C92.0001 90.0131 91.4705 89.2403 91.2724 88.7338C91.1006 88.2226 91.067 87.7275 91.1718 87.2485C91.1515 86.9813 91.1954 86.7704 91.3034 86.6159C91.4377 86.4567 91.7172 86.353 92.142 86.3048C92.3813 86.127 92.7227 86.0665 93.1661 86.1234C93.872 86.1337 94.3315 86.0523 94.5446 85.8792L95.2117 85.5172C95.7322 85.3979 96.0681 85.2301 96.2193 85.0137C96.3922 84.7665 96.9427 84.5877 97.8711 84.4774L98.4594 84.1294C98.8177 84.0118 99.1266 83.9976 99.3862 84.0871C100.309 84.2487 101.025 84.3926 101.534 84.5189C101.522 84.6024 101.764 84.6678 102.26 84.7154C102.802 85.0255 103.162 85.4493 103.338 85.9868C103.944 86.9627 104.407 87.8151 104.726 88.544C105.071 89.2682 105.182 89.8984 105.061 90.4345C104.939 90.9706 104.74 91.4527 104.464 91.8808C104.209 92.278 103.987 92.6288 103.797 92.9333C103.504 93.4185 103.054 94.0128 102.447 94.716C103.194 94.8005 103.724 95.045 104.04 95.4495C104.123 95.4618 104.293 95.5806 104.55 95.806C104.806 96.0314 104.993 96.2421 105.109 96.4382C105.569 96.8982 105.872 97.3862 106.018 97.902C106.268 98.3993 106.508 99.1421 106.738 100.131C106.993 101.114 106.975 102.16 106.684 103.268L106.481 104.645C106.414 105.334 106.266 105.874 106.037 106.267C105.835 106.655 105.354 107.146 104.593 107.742C103.827 108.311 103.354 108.624 103.175 108.683C102.646 109.21 101.892 109.696 100.915 110.14ZM119.633 95.6931L119.488 94.4188C119.43 93.4812 119.132 92.1799 118.593 90.515C118.404 89.6006 118.176 88.9234 117.908 88.4833C117.636 88.017 117.132 87.3886 116.396 86.5982C115.849 86.2618 115.564 86.028 115.541 85.8967C115.201 85.659 114.897 85.9296 114.628 86.7083C114.593 87.1208 114.281 88.3406 113.692 90.3677C113.808 90.5638 113.769 90.8009 113.575 91.0791C113.536 91.1672 113.538 91.3294 113.58 91.5657C113.686 91.7093 113.752 91.9279 113.777 92.2213C113.745 92.4979 113.861 93.6147 114.127 95.5717C114.322 96.6745 114.554 97.446 114.821 97.886C114.979 98.7788 115.158 99.4785 115.356 99.985C115.46 100.725 115.615 101.293 115.82 101.69C116.341 102.491 116.812 102.855 117.232 102.781C117.652 102.706 118.051 102.283 118.429 101.512C118.833 100.737 119.092 99.8242 119.204 98.7752C119.14 98.5698 119.161 98.4578 119.266 98.4392C119.233 98.2554 119.246 97.9418 119.302 97.4984C119.381 97.0241 119.406 96.7082 119.378 96.5506L119.633 95.6931ZM108.983 89.0084L108.955 88.1603C108.922 87.9765 109.009 87.7038 109.216 87.3422C109.299 86.8942 109.316 86.6068 109.266 86.4802C109.243 86.3489 109.314 85.9843 109.479 85.3864C109.665 84.7575 109.858 84.3171 110.057 84.0652C110.252 83.787 110.426 83.4718 110.58 83.1195C110.557 82.9882 110.61 82.8298 110.74 82.6443C110.896 82.4542 111.063 82.3298 111.242 82.2709C111.809 81.9539 112.259 81.82 112.593 81.8692C113.463 82.04 113.96 82.0196 114.085 81.8079C114.124 81.7198 114.372 81.5945 114.831 81.432C115.311 81.2386 115.646 81.1388 115.834 81.1325C116.044 81.0952 116.284 81.1476 116.553 81.2895C117.551 81.5731 118.61 82.2791 119.731 83.4076C120.878 84.5314 121.761 85.7697 122.38 87.1225C123.274 88.8057 123.782 90.5301 123.905 92.2956C124.07 94.2975 124.002 96.3544 123.699 98.4663C123.396 100.578 123.191 101.793 123.085 102.109C123.005 102.421 122.926 102.665 122.849 102.842C122.793 102.987 122.769 103.154 122.775 103.342C122.777 103.504 122.631 103.828 122.338 104.313C122.045 104.799 121.811 105.084 121.636 105.169C121.003 105.877 120.4 106.295 119.827 106.424C119.701 106.473 119.478 106.513 119.158 106.542C118.869 106.593 118.606 106.64 118.37 106.682C118.134 106.724 117.955 106.783 117.833 106.858C117.351 106.89 116.965 106.931 116.677 106.982C116.419 107.055 116.019 107.017 115.478 106.869C114.602 106.51 113.863 106.004 113.26 105.353C113.076 104.925 112.876 104.636 112.659 104.484L112.112 103.688C111.79 103.555 111.52 103.021 111.3 102.085C110.067 99.8658 109.205 96.1458 108.713 90.9248C108.653 90.5835 108.715 90.3965 108.898 90.364C108.954 90.2187 108.952 90.0565 108.893 89.8774C108.861 89.6936 108.891 89.4039 108.983 89.0084ZM137.249 92.5721L137.104 91.2978C137.047 90.3602 136.748 89.0589 136.21 87.394C136.021 86.4797 135.792 85.8024 135.525 85.3624C135.253 84.896 134.748 84.2677 134.013 83.4772C133.466 83.1408 133.18 82.907 133.157 82.7757C132.817 82.5381 132.513 82.8086 132.245 83.5873C132.209 83.9998 131.898 85.2196 131.309 87.2467C131.425 87.4428 131.386 87.68 131.191 87.9582C131.153 88.0462 131.154 88.2084 131.196 88.4448C131.303 88.5883 131.369 88.8069 131.393 89.1004C131.361 89.3769 131.478 90.4937 131.743 92.4507C131.939 93.5535 132.17 94.325 132.438 94.7651C132.596 95.6578 132.774 96.3575 132.972 96.864C133.076 97.6039 133.231 98.1723 133.437 98.5691C133.958 99.3705 134.428 99.734 134.848 99.6596C135.269 99.5851 135.668 99.1624 136.046 98.3913C136.45 97.6156 136.708 96.7032 136.82 95.6542C136.756 95.4488 136.777 95.3368 136.882 95.3182C136.85 95.1344 136.862 94.8208 136.919 94.3774C136.997 93.9031 137.022 93.5872 136.995 93.4297L137.249 92.5721ZM126.599 85.8874L126.571 85.0394C126.538 84.8556 126.626 84.5828 126.832 84.2212C126.915 83.7732 126.932 83.4859 126.883 83.3592C126.859 83.2279 126.93 82.8633 127.095 82.2654C127.282 81.6365 127.474 81.1962 127.674 80.9442C127.868 80.666 128.042 80.3508 128.197 79.9985C128.173 79.8672 128.227 79.7088 128.356 79.5234C128.512 79.3333 128.68 79.2088 128.859 79.15C129.425 78.8329 129.876 78.699 130.209 78.7482C131.079 78.9191 131.577 78.8987 131.702 78.6869C131.74 78.5989 131.989 78.4736 132.447 78.3111C132.928 78.1177 133.262 78.0178 133.451 78.0115C133.661 77.9743 133.9 78.0266 134.169 78.1686C135.167 78.4521 136.226 79.1581 137.347 80.2866C138.494 81.4104 139.377 82.6487 139.996 84.0015C140.89 85.6847 141.398 87.4091 141.522 89.1747C141.687 91.1766 141.618 93.2335 141.315 95.3453C141.012 97.4572 140.807 98.6716 140.701 98.9883C140.621 99.3004 140.542 99.5445 140.465 99.7207C140.41 99.8659 140.385 100.033 140.391 100.221C140.393 100.383 140.247 100.707 139.954 101.192C139.661 101.678 139.427 101.963 139.253 102.048C138.62 102.756 138.017 103.174 137.444 103.303C137.317 103.352 137.094 103.392 136.774 103.421C136.485 103.472 136.223 103.519 135.986 103.561C135.75 103.603 135.571 103.662 135.449 103.737C134.967 103.769 134.582 103.81 134.293 103.861C134.035 103.934 133.636 103.896 133.095 103.748C132.219 103.389 131.479 102.883 130.876 102.232C130.692 101.804 130.492 101.515 130.276 101.363L129.728 100.567C129.407 100.434 129.136 99.8998 128.916 98.9638C127.683 96.7448 126.821 93.0248 126.33 87.8039C126.269 87.4625 126.331 87.2756 126.515 87.243C126.57 87.0977 126.568 86.9355 126.51 86.7564C126.477 86.5726 126.507 86.2829 126.599 85.8874ZM149.389 97.1242C149.792 97.1069 150.044 97.306 150.145 97.7215C150.267 98.106 150.391 98.6528 150.516 99.3618C150.637 100.044 150.606 101.012 150.421 102.263C150.407 102.644 150.314 102.959 150.141 103.206C150.155 103.285 150.084 103.65 149.929 104.3C149.911 105.116 149.436 105.877 148.505 106.583C148.323 106.778 148.156 106.903 148.003 106.957C147.422 107.195 146.909 107.205 146.464 106.986C146.293 106.935 146.237 106.85 146.297 106.731C146.265 106.547 146.353 106.206 146.563 105.709C146.804 105.233 146.947 104.896 146.993 104.698C147.044 104.527 147.091 104.18 147.134 103.658L146.869 102.161C146.706 101.242 146.384 100.649 145.904 100.382C145.418 100.089 145.139 99.5832 145.066 98.8649C145.035 98.8433 145.014 98.7252 145.003 98.5105C144.988 98.2695 145.033 97.9906 145.14 97.6739C145.241 97.3309 145.396 97.0597 145.605 96.8602L146.202 96.795C146.745 96.6448 147.24 96.6112 147.688 96.6943L148.346 96.7402C148.372 96.7356 148.72 96.8636 149.389 97.1242ZM160.289 88.4904L160.144 87.216C160.086 86.2784 159.788 84.9771 159.249 83.3123C159.06 82.3979 158.832 81.7207 158.564 81.2806C158.292 80.8142 157.788 80.1859 157.052 79.3954C156.505 79.0591 156.22 78.8252 156.197 78.6939C155.857 78.4563 155.553 78.7268 155.284 79.5055C155.249 79.918 154.937 81.1378 154.348 83.1649C154.464 83.361 154.425 83.5982 154.231 83.8764C154.192 83.9644 154.194 84.1266 154.236 84.363C154.342 84.5066 154.408 84.7251 154.433 85.0186C154.401 85.2951 154.517 86.4119 154.783 88.3689C154.978 89.4718 155.21 90.2432 155.477 90.6833C155.635 91.5761 155.814 92.2757 156.012 92.7823C156.116 93.5221 156.27 94.0905 156.476 94.4874C156.997 95.2887 157.468 95.6522 157.888 95.5778C158.308 95.5033 158.707 95.0806 159.085 94.3095C159.489 93.5338 159.748 92.6214 159.86 91.5724C159.796 91.367 159.817 91.255 159.922 91.2364C159.889 91.0526 159.902 90.739 159.958 90.2956C160.037 89.8213 160.062 89.5054 160.034 89.3479L160.289 88.4904ZM149.639 81.8056L149.611 80.9576C149.578 80.7738 149.665 80.5011 149.872 80.1394C149.955 79.6914 149.972 79.4041 149.922 79.2774C149.899 79.1461 149.97 78.7815 150.135 78.1836C150.321 77.5548 150.514 77.1144 150.713 76.8624C150.908 76.5843 151.082 76.269 151.236 75.9167C151.213 75.7854 151.266 75.627 151.396 75.4416C151.552 75.2515 151.719 75.127 151.898 75.0682C152.465 74.7511 152.915 74.6172 153.249 74.6664C154.119 74.8373 154.616 74.8169 154.741 74.6052C154.78 74.5171 155.028 74.3918 155.487 74.2293C155.967 74.0359 156.302 73.936 156.49 73.9297C156.7 73.8925 156.94 73.9448 157.209 74.0868C158.207 74.3703 159.266 75.0764 160.387 76.2048C161.534 77.3286 162.417 78.5669 163.036 79.9197C163.93 81.6029 164.438 83.3273 164.561 85.0929C164.726 87.0948 164.658 89.1517 164.355 91.2636C164.052 93.3754 163.847 94.5898 163.741 94.9065C163.661 95.2186 163.582 95.4627 163.505 95.6389C163.449 95.7841 163.425 95.951 163.431 96.1394C163.433 96.3016 163.287 96.6254 162.994 97.1106C162.701 97.5959 162.467 97.881 162.292 97.9661C161.659 98.674 161.056 99.0923 160.483 99.2209C160.357 99.2704 160.134 99.31 159.814 99.3395C159.525 99.3907 159.262 99.4372 159.026 99.4791C158.79 99.5209 158.611 99.5798 158.489 99.6555C158.007 99.6868 157.621 99.728 157.332 99.7791C157.075 99.8519 156.675 99.8143 156.134 99.6664C155.258 99.3071 154.519 98.8016 153.916 98.1502C153.732 97.7224 153.532 97.4329 153.315 97.2816L152.768 96.4849C152.446 96.3523 152.176 95.818 151.956 94.882C150.723 92.663 149.861 88.943 149.369 83.7221C149.309 83.3807 149.37 83.1938 149.554 83.1612C149.61 83.016 149.608 82.8538 149.549 82.6746C149.517 82.4908 149.547 82.2011 149.639 81.8056ZM177.905 85.3694L177.76 84.0951C177.703 83.1574 177.404 81.8562 176.866 80.1913C176.676 79.2769 176.448 78.5997 176.181 78.1596C175.908 77.6933 175.404 77.0649 174.669 76.2745C174.122 75.9381 173.836 75.7043 173.813 75.573C173.473 75.3353 173.169 75.6058 172.901 76.3846C172.865 76.797 172.553 78.0168 171.965 80.044C172.081 80.2401 172.041 80.4772 171.847 80.7554C171.808 80.8435 171.81 81.0057 171.852 81.242C171.959 81.3856 172.024 81.6041 172.049 81.8976C172.017 82.1742 172.134 83.2909 172.399 85.248C172.595 86.3508 172.826 87.1222 173.094 87.5623C173.252 88.4551 173.43 89.1547 173.628 89.6613C173.732 90.4012 173.887 90.9695 174.093 91.3664C174.614 92.1678 175.084 92.5312 175.504 92.4568C175.925 92.3824 176.324 91.9596 176.701 91.1885C177.106 90.4128 177.364 89.5004 177.476 88.4515C177.412 88.2461 177.433 88.1341 177.538 88.1154C177.506 87.9316 177.518 87.618 177.575 87.1747C177.653 86.7004 177.678 86.3844 177.651 86.2269L177.905 85.3694ZM167.255 78.6847L167.227 77.8366C167.194 77.6528 167.282 77.3801 167.488 77.0185C167.571 76.5704 167.588 76.2831 167.539 76.1565C167.515 76.0252 167.586 75.6606 167.751 75.0626C167.938 74.4338 168.13 73.9934 168.33 73.7415C168.524 73.4633 168.698 73.148 168.853 72.7957C168.829 72.6644 168.883 72.5061 169.012 72.3206C169.168 72.1305 169.336 72.006 169.515 71.9472C170.081 71.6302 170.532 71.4962 170.865 71.5454C171.735 71.7163 172.233 71.6959 172.358 71.4842C172.396 71.3961 172.645 71.2708 173.103 71.1083C173.584 70.9149 173.918 70.815 174.107 70.8087C174.317 70.7715 174.556 70.8239 174.825 70.9658C175.823 71.2494 176.882 71.9554 178.003 73.0839C179.15 74.2077 180.033 75.446 180.652 76.7988C181.546 78.482 182.054 80.2063 182.178 81.9719C182.343 83.9738 182.274 86.0307 181.971 88.1426C181.668 90.2545 181.463 91.4688 181.357 91.7855C181.277 92.0976 181.198 92.3418 181.121 92.5179C181.066 92.6632 181.041 92.83 181.047 93.0185C181.049 93.1807 180.903 93.5044 180.61 93.9896C180.317 94.4749 180.083 94.7601 179.909 94.8451C179.276 95.5531 178.673 95.9713 178.1 96.0999C177.973 96.1494 177.75 96.189 177.43 96.2186C177.141 96.2697 176.879 96.3162 176.642 96.3581C176.406 96.4 176.227 96.4588 176.105 96.5346C175.623 96.5658 175.238 96.607 174.949 96.6582C174.691 96.7309 174.292 96.6934 173.751 96.5454C172.875 96.1861 172.135 95.6807 171.532 95.0292C171.348 94.6014 171.148 94.3119 170.932 94.1607L170.384 93.3639C170.063 93.2313 169.792 92.697 169.572 91.761C168.339 89.542 167.477 85.8221 166.986 80.6011C166.925 80.2598 166.987 80.0728 167.171 80.0402C167.226 79.895 167.224 79.7328 167.166 79.5536C167.133 79.3698 167.163 79.0802 167.255 78.6847Z" fill="white"/>
</g>
<defs>
<filter id="filter0_d_2961_1542" x="0" y="0" width="229.941" height="207.246" filterUnits="userSpaceOnUse" color-interpolation-filters="sRGB">
<feFlood flood-opacity="0" result="BackgroundImageFix"/>
<feColorMatrix in="SourceAlpha" type="matrix" values="0 0 0 0 0 0 0 0 0 0 0 0 0 0 0 0 0 0 127 0" result="hardAlpha"/>
<feOffset dy="14"/>
<feGaussianBlur stdDeviation="5"/>
<feComposite in2="hardAlpha" operator="out"/>
<feColorMatrix type="matrix" values="0 0 0 0 0 0 0 0 0 0 0 0 0 0 0 0 0 0 0.25 0"/>
<feBlend mode="normal" in2="BackgroundImageFix" result="effect1_dropShadow_2961_1542"/>
<feBlend mode="normal" in="SourceGraphic" in2="effect1_dropShadow_2961_1542" result="shape"/>
</filter>
</defs>
</svg>
