<svg width="46" height="24" viewBox="0 0 46 24" fill="none" xmlns="http://www.w3.org/2000/svg">
<rect width="46" height="24" rx="4" fill="white"/>
<path d="M15.4287 20.9795V19.7836C15.4358 19.683 15.4209 19.5821 15.3849 19.4876C15.3489 19.393 15.2927 19.3071 15.22 19.2354C15.1473 19.1637 15.0598 19.108 14.9633 19.0719C14.8668 19.0358 14.7635 19.0202 14.6603 19.0261C14.5252 19.0175 14.3902 19.0444 14.2694 19.104C14.1487 19.1636 14.0465 19.2537 13.9736 19.365C13.9072 19.2571 13.8121 19.1686 13.6985 19.109C13.5848 19.0494 13.4568 19.0207 13.3278 19.0261C13.2154 19.0206 13.1035 19.0438 13.0032 19.0934C12.9028 19.1431 12.8175 19.2175 12.7556 19.3092V19.074H12.3306V20.9795H12.7597V19.9311C12.7506 19.8659 12.7563 19.7996 12.7765 19.7368C12.7967 19.6741 12.8309 19.6165 12.8766 19.5681C12.9223 19.5197 12.9784 19.4818 13.0408 19.457C13.1033 19.4322 13.1706 19.4212 13.2379 19.4248C13.5199 19.4248 13.663 19.6042 13.663 19.9271V20.9874H14.0921V19.9311C14.0834 19.866 14.0894 19.7998 14.1097 19.7372C14.1301 19.6746 14.1643 19.6171 14.2099 19.5689C14.2555 19.5206 14.3114 19.4826 14.3737 19.4577C14.436 19.4328 14.5031 19.4216 14.5703 19.4248C14.8605 19.4248 14.9995 19.6042 14.9995 19.9271V20.9874L15.4287 20.9795ZM21.7781 19.074H21.0792V18.496H20.65V19.074H20.2618V19.4527H20.6582V20.3297C20.6582 20.7722 20.834 21.0353 21.3367 21.0353C21.5245 21.0359 21.7087 20.9848 21.868 20.8878L21.7454 20.533C21.6314 20.5993 21.502 20.6363 21.3694 20.6406C21.165 20.6406 21.0874 20.5131 21.0874 20.3217V19.4527H21.7822L21.7781 19.074ZM25.4035 19.0261C25.2998 19.0232 25.1973 19.0475 25.1066 19.0966C25.016 19.1457 24.9406 19.2178 24.8885 19.3052V19.074H24.4675V20.9795H24.8926V19.9111C24.8926 19.5962 25.0315 19.4208 25.3013 19.4208C25.3922 19.4196 25.4825 19.4358 25.5669 19.4686L25.6977 19.07C25.6007 19.0361 25.4984 19.0186 25.3953 19.0182L25.4035 19.0261ZM19.9225 19.2255C19.6819 19.0859 19.4053 19.0168 19.1255 19.0261C18.631 19.0261 18.3081 19.2574 18.3081 19.6361C18.3081 19.947 18.5451 20.1383 18.9825 20.1981L19.1868 20.226C19.4198 20.2579 19.5302 20.3177 19.5302 20.4254C19.5302 20.5729 19.3748 20.6566 19.0847 20.6566C18.8512 20.6632 18.6223 20.593 18.4348 20.4573L18.2304 20.7801C18.478 20.9488 18.7746 21.0354 19.0765 21.0273C19.6405 21.0273 19.9675 20.7682 19.9675 20.4054C19.9675 20.0427 19.71 19.8952 19.2849 19.8354L19.0806 19.8075C18.8966 19.7836 18.7495 19.7477 18.7495 19.6201C18.7495 19.4925 18.8885 19.3969 19.1214 19.3969C19.3368 19.3993 19.5479 19.4556 19.7345 19.5603L19.9225 19.2255ZM31.3074 19.0261C31.2038 19.0232 31.1012 19.0475 31.0106 19.0966C30.92 19.1457 30.8446 19.2178 30.7924 19.3052V19.074H30.3714V20.9795H30.7965V19.9111C30.7965 19.5962 30.9355 19.4208 31.2052 19.4208C31.2961 19.4196 31.3864 19.4358 31.4709 19.4686L31.6017 19.07C31.5046 19.0361 31.4023 19.0186 31.2992 19.0182L31.3074 19.0261ZM25.8306 20.0227C25.8255 20.1566 25.8492 20.2901 25.9 20.4146C25.9509 20.5391 26.0278 20.6518 26.1259 20.7456C26.224 20.8394 26.3411 20.9122 26.4698 20.9593C26.5984 21.0065 26.7356 21.0269 26.8728 21.0193C27.128 21.032 27.3788 20.9509 27.5758 20.7921L27.3714 20.4573C27.2245 20.5665 27.0453 20.6267 26.8605 20.6287C26.7034 20.6163 26.5568 20.5466 26.45 20.4336C26.3431 20.3206 26.2838 20.1725 26.2838 20.0188C26.2838 19.865 26.3431 19.7169 26.45 19.6039C26.5568 19.4909 26.7034 19.4212 26.8605 19.4088C27.0453 19.4108 27.2245 19.471 27.3714 19.5802L27.5758 19.2454C27.3788 19.0866 27.128 19.0055 26.8728 19.0182C26.7356 19.0106 26.5984 19.031 26.4698 19.0782C26.3411 19.1253 26.224 19.1981 26.1259 19.2919C26.0278 19.3857 25.9509 19.4984 25.9 19.6229C25.8492 19.7474 25.8255 19.8809 25.8306 20.0148V20.0227ZM29.8115 20.0227V19.074H29.3864V19.3052C29.3142 19.2146 29.221 19.142 29.1144 19.0935C29.0078 19.045 28.8909 19.0219 28.7733 19.0261C28.5023 19.0261 28.2424 19.1311 28.0508 19.318C27.8592 19.5049 27.7515 19.7584 27.7515 20.0227C27.7515 20.2871 27.8592 20.5405 28.0508 20.7274C28.2424 20.9143 28.5023 21.0193 28.7733 21.0193C28.8909 21.0236 29.0078 21.0005 29.1144 20.9519C29.221 20.9034 29.3142 20.8309 29.3864 20.7403V20.9715H29.8115V20.0227ZM28.2297 20.0227C28.2365 19.9106 28.2768 19.8028 28.3456 19.7127C28.4144 19.6225 28.5087 19.554 28.6169 19.5155C28.7251 19.477 28.8425 19.4702 28.9547 19.4959C29.0668 19.5217 29.1688 19.5788 29.248 19.6604C29.3272 19.7419 29.3803 19.8443 29.4006 19.9549C29.421 20.0655 29.4077 20.1795 29.3625 20.2828C29.3173 20.3861 29.242 20.4743 29.1461 20.5365C29.0501 20.5986 28.9376 20.6321 28.8224 20.6327C28.7415 20.6337 28.6612 20.6183 28.5867 20.5876C28.5121 20.5569 28.4449 20.5114 28.3893 20.4541C28.3336 20.3969 28.2907 20.329 28.2632 20.2547C28.2358 20.1805 28.2244 20.1015 28.2297 20.0227ZM23.1003 19.0261C22.8293 19.0298 22.5709 19.1384 22.382 19.3279C22.193 19.5174 22.089 19.7724 22.0928 20.0367C22.0966 20.301 22.2079 20.553 22.4022 20.7373C22.5965 20.9216 22.8579 21.023 23.1289 21.0193C23.423 21.0341 23.7121 20.9417 23.9402 20.7602L23.7359 20.4533C23.5745 20.5795 23.3746 20.6496 23.1678 20.6526C23.0273 20.6644 22.8876 20.6222 22.7784 20.5351C22.6693 20.448 22.5993 20.3228 22.5833 20.1862H24.0342C24.0342 20.1344 24.0342 20.0825 24.0342 20.0267C24.0342 19.4288 23.6541 19.0301 23.1065 19.0301L23.1003 19.0261ZM23.1003 19.3969C23.1639 19.3956 23.2272 19.4065 23.2865 19.429C23.3457 19.4515 23.3999 19.4852 23.4458 19.5282C23.4917 19.5711 23.5285 19.6224 23.5541 19.6793C23.5797 19.7361 23.5935 19.7973 23.5949 19.8593H22.5731C22.5805 19.7313 22.6389 19.6113 22.736 19.5249C22.833 19.4385 22.9608 19.3925 23.0921 19.3969H23.1003ZM33.7495 20.0267V18.3086H33.3408V19.3052C33.2686 19.2146 33.1754 19.142 33.0688 19.0935C32.9622 19.045 32.8453 19.0219 32.7277 19.0261C32.4567 19.0261 32.1968 19.1311 32.0052 19.318C31.8136 19.5049 31.7059 19.7584 31.7059 20.0227C31.7059 20.2871 31.8136 20.5405 32.0052 20.7274C32.1968 20.9143 32.4567 21.0193 32.7277 21.0193C32.8453 21.0236 32.9622 21.0005 33.0688 20.9519C33.1754 20.9034 33.2686 20.8309 33.3408 20.7403V20.9715H33.7495V20.0267ZM34.4586 20.7024C34.4852 20.7021 34.5116 20.7068 34.5363 20.7164C34.5598 20.7257 34.5812 20.7392 34.5996 20.7562C34.6176 20.7734 34.6321 20.7937 34.6426 20.816C34.6529 20.8393 34.6582 20.8644 34.6582 20.8898C34.6582 20.9151 34.6529 20.9402 34.6426 20.9635C34.6321 20.9859 34.6176 21.0061 34.5996 21.0233C34.5812 21.0403 34.5598 21.0538 34.5363 21.0632C34.5118 21.0737 34.4854 21.0791 34.4586 21.0791C34.4199 21.0788 34.382 21.0678 34.3495 21.0474C34.3169 21.0269 34.291 20.9978 34.2747 20.9635C34.2645 20.9402 34.2592 20.9151 34.2592 20.8898C34.2592 20.8644 34.2645 20.8393 34.2747 20.816C34.2851 20.7937 34.2997 20.7734 34.3176 20.7562C34.336 20.7392 34.3575 20.7257 34.381 20.7164C34.4076 20.706 34.4361 20.7013 34.4648 20.7024H34.4586ZM34.4586 21.0393C34.479 21.0394 34.4992 21.0353 34.5179 21.0273C34.5355 21.0196 34.5514 21.0088 34.5649 20.9954C34.5905 20.9682 34.6046 20.9327 34.6046 20.8958C34.6046 20.8589 34.5905 20.8233 34.5649 20.7961C34.5515 20.7826 34.5355 20.7718 34.5179 20.7642C34.4992 20.7563 34.479 20.7522 34.4586 20.7522C34.4383 20.7524 34.4181 20.7564 34.3994 20.7642C34.381 20.7715 34.3643 20.7824 34.3503 20.7961C34.3248 20.8233 34.3106 20.8589 34.3106 20.8958C34.3106 20.9327 34.3248 20.9682 34.3503 20.9954C34.3644 21.0091 34.381 21.0199 34.3994 21.0273C34.42 21.036 34.4423 21.0401 34.4648 21.0393H34.4586ZM34.4709 20.8021C34.49 20.8012 34.5088 20.8068 34.524 20.818C34.5303 20.8231 34.5352 20.8295 34.5384 20.8368C34.5416 20.8441 34.543 20.852 34.5424 20.8599C34.5427 20.8665 34.5416 20.8731 34.5391 20.8793C34.5367 20.8855 34.5329 20.8911 34.5281 20.8958C34.5163 20.9062 34.5012 20.9126 34.4852 20.9137L34.5445 20.9795H34.4975L34.4423 20.9137H34.4239V20.9795H34.3851V20.8041L34.4709 20.8021ZM34.4259 20.836V20.8838H34.4709C34.4789 20.8861 34.4874 20.8861 34.4954 20.8838C34.4969 20.881 34.4976 20.8779 34.4976 20.8748C34.4976 20.8717 34.4969 20.8686 34.4954 20.8659C34.4969 20.8631 34.4976 20.86 34.4976 20.8569C34.4976 20.8538 34.4969 20.8507 34.4954 20.8479C34.4874 20.8456 34.4789 20.8456 34.4709 20.8479L34.4259 20.836ZM32.178 20.0267C32.1848 19.9146 32.225 19.8068 32.2938 19.7167C32.3626 19.6265 32.4569 19.558 32.5651 19.5195C32.6733 19.481 32.7908 19.4742 32.9029 19.4999C33.015 19.5257 33.117 19.5828 33.1962 19.6644C33.2755 19.7459 33.3285 19.8483 33.3489 19.9589C33.3692 20.0695 33.356 20.1835 33.3107 20.2868C33.2655 20.3901 33.1903 20.4783 33.0943 20.5405C32.9983 20.6026 32.8858 20.6361 32.7706 20.6366C32.6897 20.6376 32.6095 20.6223 32.5349 20.5916C32.4604 20.5609 32.3932 20.5154 32.3375 20.4581C32.2818 20.4008 32.2389 20.3329 32.2115 20.2587C32.184 20.1845 32.1726 20.1055 32.178 20.0267ZM17.8258 20.0267V19.074H17.4007V19.3052C17.3285 19.2146 17.2353 19.142 17.1287 19.0935C17.0221 19.045 16.9052 19.0219 16.7877 19.0261C16.5167 19.0261 16.2568 19.1311 16.0651 19.318C15.8735 19.5049 15.7659 19.7584 15.7659 20.0227C15.7659 20.2871 15.8735 20.5405 16.0651 20.7274C16.2568 20.9143 16.5167 21.0193 16.7877 21.0193C16.9052 21.0236 17.0221 21.0005 17.1287 20.9519C17.2353 20.9034 17.3285 20.8309 17.4007 20.7403V20.9715H17.8258V20.0267ZM16.2441 20.0267C16.2508 19.9146 16.2911 19.8068 16.3599 19.7167C16.4287 19.6265 16.523 19.558 16.6312 19.5195C16.7394 19.481 16.8568 19.4742 16.969 19.4999C17.0811 19.5257 17.1831 19.5828 17.2623 19.6644C17.3415 19.7459 17.3946 19.8483 17.4149 19.9589C17.4353 20.0695 17.422 20.1835 17.3768 20.2868C17.3316 20.3901 17.2563 20.4783 17.1604 20.5405C17.0644 20.6026 16.9519 20.6361 16.8367 20.6366C16.7554 20.6382 16.6747 20.6233 16.5997 20.5928C16.5247 20.5623 16.457 20.517 16.4009 20.4596C16.3448 20.4023 16.3015 20.3342 16.2738 20.2597C16.2461 20.1851 16.2346 20.1058 16.24 20.0267H16.2441Z" fill="#231F20"/>
<path d="M26.2186 4.55469H19.7812V15.8381H26.2186V4.55469Z" fill="#FF5F00"/>
<path d="M20.1901 10.196C20.1889 9.10918 20.4413 8.03633 20.9281 7.05871C21.4149 6.08109 22.1235 5.22432 23 4.55329C21.9147 3.72138 20.6113 3.20406 19.2388 3.06047C17.8663 2.91687 16.48 3.15279 15.2385 3.74125C13.9969 4.32972 12.9502 5.247 12.2179 6.38825C11.4855 7.5295 11.0972 8.84868 11.0972 10.195C11.0972 11.5414 11.4855 12.8605 12.2179 14.0018C12.9502 15.143 13.9969 16.0603 15.2385 16.6488C16.48 17.2373 17.8663 17.4732 19.2388 17.3296C20.6113 17.186 21.9147 16.6687 23 15.8367C22.1237 15.1659 21.4154 14.3095 20.9286 13.3322C20.4417 12.355 20.1892 11.2825 20.1901 10.196Z" fill="#EB001B"/>
<path d="M34.9039 10.1968C34.9039 11.5433 34.5155 12.8625 33.783 14.0038C33.0506 15.1451 32.0036 16.0624 30.7619 16.6508C29.5202 17.2392 28.1339 17.4749 26.7613 17.3311C25.3887 17.1873 24.0853 16.6697 23 15.8376C23.8759 15.1662 24.5841 14.3095 25.0711 13.3322C25.558 12.3549 25.811 11.2824 25.811 10.1958C25.811 9.10925 25.558 8.03684 25.0711 7.05953C24.5841 6.08222 23.8759 5.22554 23 4.55412C24.0853 3.72195 25.3887 3.20438 26.7613 3.06058C28.1339 2.91677 29.5202 3.15254 30.7619 3.74092C32.0036 4.32931 33.0506 5.24657 33.783 6.38786C34.5155 7.52915 34.9039 8.84841 34.9039 10.1949V10.1968Z" fill="#F79E1B"/>
<path d="M34.2009 14.6423V14.4111H34.2969V14.3633H34.0537V14.4111H34.1579V14.6423H34.2009ZM34.6729 14.6423V14.3633H34.5994L34.5135 14.5626L34.4277 14.3633H34.3623V14.6423H34.4154V14.433L34.4951 14.6144H34.5503L34.63 14.433V14.6443L34.6729 14.6423Z" fill="#F79E1B"/>
</svg>
