<svg width="150" height="121" viewBox="0 0 150 121" fill="none" xmlns="http://www.w3.org/2000/svg">
<rect x="30.9349" y="3.34514" width="132.562" height="55.1799" rx="4.08136" transform="rotate(30 30.9349 3.34514)" stroke="#F35E5E" stroke-width="4.89763"/>
<path d="M52.5394 45.786L52.0994 46.5481C51.3936 47.7705 50.5945 48.772 49.7019 49.5527C48.8094 50.3334 47.8635 50.8919 46.8643 51.2281C45.8694 51.5569 44.848 51.6594 43.8002 51.5356C42.7598 51.416 41.7315 51.0628 40.7153 50.4761C39.7065 49.8937 38.8865 49.1797 38.2554 48.3343C37.6316 47.493 37.2097 46.5573 36.9896 45.5269C36.7738 44.4892 36.7772 43.3866 36.9996 42.219C37.2294 41.0557 37.6972 39.8629 38.4029 38.6405L38.843 37.8784C39.553 36.6486 40.3521 35.6471 41.2404 34.8738C42.1329 34.0931 43.0788 33.5347 44.078 33.1984C45.0846 32.8665 46.1081 32.7603 47.1485 32.8799C48.1963 33.0037 49.2246 33.3569 50.2334 33.9393C51.2496 34.526 52.0696 35.24 52.6933 36.0812C53.3245 36.9267 53.7443 37.8662 53.9527 38.8996C54.1685 39.9373 54.1615 41.0378 53.9317 42.2011C53.7135 43.3613 53.2494 44.5563 52.5394 45.786ZM48.7526 44.6159L49.2054 43.8316C49.6985 42.9775 50.0548 42.1817 50.2743 41.4444C50.4938 40.7072 50.5801 40.0305 50.5333 39.4143C50.4865 38.7982 50.3096 38.2543 50.0027 37.7825C49.7 37.3034 49.2689 36.9023 48.7093 36.5792C48.1496 36.2561 47.5867 36.0833 47.0204 36.0607C46.4658 36.035 45.91 36.156 45.353 36.4235C44.8034 36.6952 44.2642 37.1105 43.7354 37.6692C43.2066 38.2279 42.6957 38.9344 42.2025 39.7886L41.7497 40.5728C41.2608 41.4196 40.9045 42.2153 40.6808 42.96C40.4613 43.6973 40.3728 44.3777 40.4154 45.0011C40.4622 45.6173 40.637 46.1649 40.9396 46.644C41.2423 47.1231 41.6734 47.5242 42.2331 47.8473C42.7927 48.1704 43.3557 48.3433 43.9219 48.3658C44.4881 48.3884 45.0461 48.2638 45.5957 47.992C46.1496 47.7129 46.6909 47.294 47.2197 46.7352C47.7527 46.1692 48.2637 45.4627 48.7526 44.6159ZM68.2315 44.6251L71.5341 46.5319L65.3993 57.1576C64.6851 58.3947 63.8184 59.2836 62.7993 59.8243C61.7876 60.3693 60.6945 60.5875 59.5201 60.4789C58.3531 60.3746 57.1694 59.9759 55.9691 59.2829C54.7689 58.59 53.8244 57.76 53.1358 56.7929C52.4546 55.8302 52.0933 54.7723 52.0521 53.6194C52.0181 52.4707 52.3583 51.2778 53.0725 50.0408L59.2073 39.415L62.521 41.3281L56.3862 51.9539C55.9696 52.6755 55.7436 53.3305 55.7083 53.9189C55.673 54.5072 55.8072 55.0314 56.111 55.4916C56.4222 55.9559 56.8723 56.3582 57.4614 56.6983C58.0652 57.0469 58.6386 57.2356 59.1816 57.2644C59.732 57.2974 60.2495 57.1495 60.734 56.8204C61.2258 56.4957 61.6801 55.9725 62.0967 55.2509L68.2315 44.6251ZM81.453 52.2585L72.1679 68.3407L68.8653 66.434L78.1504 50.3517L81.453 52.2585ZM86.4013 55.1155L84.9027 57.7111L71.7807 50.1351L73.2793 47.5394L86.4013 55.1155ZM88.2901 56.2059L94.2878 59.6687C95.5176 60.3787 96.468 61.1729 97.139 62.0512C97.8175 62.9338 98.1877 63.8741 98.2497 64.8721C98.3117 65.8701 98.0387 66.8956 97.4307 67.9486C96.9333 68.8101 96.3588 69.4651 95.7071 69.9136C95.0671 70.359 94.3629 70.6348 93.5947 70.7411C92.838 70.8443 92.0361 70.8133 91.1889 70.6481L89.8207 70.5946L84.6072 67.5846L86.0774 64.9872L89.9543 67.2255C90.5361 67.5614 91.0779 67.7368 91.5799 67.7517C92.0818 67.7666 92.5348 67.6452 92.9388 67.3875C93.3502 67.1341 93.6962 66.7644 93.9768 66.2784C94.2744 65.763 94.4359 65.2622 94.4612 64.7761C94.4866 64.2901 94.3616 63.8349 94.0861 63.4108C93.8106 62.9866 93.3783 62.6045 92.7892 62.2644L90.1051 60.7148L82.3187 74.2013L79.005 72.2882L88.2901 56.2059ZM87.9961 77.4792L88.4677 68.1934L91.9819 70.1929L91.631 79.3716L91.5417 79.5262L87.9961 77.4792ZM111.566 79.8653L111.126 80.6275C110.421 81.8498 109.622 82.8514 108.729 83.6321C107.836 84.4127 106.891 84.9712 105.891 85.3074C104.896 85.6362 103.875 85.7387 102.827 85.6149C101.787 85.4953 100.759 85.1422 99.7424 84.5555C98.7336 83.973 97.9136 83.2591 97.2825 82.4136C96.6587 81.5724 96.2368 80.6366 96.0167 79.6063C95.8009 78.5686 95.8043 77.4659 96.0267 76.2984C96.2566 75.135 96.7243 73.9422 97.4301 72.7198L97.8701 71.9577C98.5801 70.728 99.3792 69.7264 100.268 68.9531C101.16 68.1724 102.106 67.614 103.105 67.2778C104.112 66.9458 105.135 66.8396 106.176 66.9592C107.223 67.0831 108.252 67.4362 109.261 68.0187C110.277 68.6053 111.097 69.3193 111.72 70.1605C112.352 71.006 112.771 71.9455 112.98 72.9789C113.196 74.0166 113.189 75.1171 112.959 76.2804C112.741 77.4406 112.276 78.6356 111.566 79.8653ZM107.78 78.6952L108.232 77.911C108.726 77.0568 109.082 76.2611 109.301 75.5238C109.521 74.7865 109.607 74.1098 109.56 73.4937C109.514 72.8775 109.337 72.3336 109.03 71.8618C108.727 71.3827 108.296 70.9816 107.736 70.6585C107.177 70.3354 106.614 70.1626 106.048 70.14C105.493 70.1144 104.937 70.2353 104.38 70.5028C103.83 70.7745 103.291 71.1898 102.763 71.7485C102.234 72.3072 101.723 73.0137 101.23 73.8679L100.777 74.6521C100.288 75.4989 99.9316 76.2947 99.7079 77.0393C99.4884 77.7766 99.3999 78.457 99.4425 79.0805C99.4893 79.6966 99.6641 80.2442 99.9667 80.7233C100.269 81.2024 100.701 81.6035 101.26 81.9266C101.82 82.2497 102.383 82.4226 102.949 82.4451C103.515 82.4677 104.073 82.3431 104.623 82.0713C105.177 81.7922 105.718 81.3733 106.247 80.8146C106.78 80.2485 107.291 79.542 107.78 78.6952Z" fill="#F35E5E"/>
</svg>
